M48
;Layer_Color=9474304
;FILE_FORMAT=2:4
INCH,LZ
;TYPE=PLATED
T1F00S00C0.0118
T2F00S00C0.0217
T3F00S00C0.0394
T4F00S00C0.0472
;TYPE=NON_PLATED
T5F00S00C0.1417
%
T01
X03125Y02035
X03165Y02025
X0327Y0202
X0342Y0207
X03435Y02115
X03555Y0204
X036Y0227
X03655
X037Y0238
X03895Y0236
X0385Y02305
X03915Y0264
Y02755
X03875Y029
X03905Y0308
X0344Y03065
X0334Y0303
X0329
X03245Y03095
X03275Y0267
X03425Y0266
Y02625
Y0259
Y02695
X0358Y0269
Y02655
Y0262
X03315Y02445
X03235Y025
X032715Y023293
X03345Y0232
X0315Y02285
X0304Y0219
X0303Y0213
X02865Y02015
X02635Y02035
X02575Y02075
X0264Y0214
X0265Y02315
X02515Y023
X02505Y0223
X0239Y0217
X02305Y0222
X0219Y02305
X0201Y0246
X02005Y0256
X0202Y02755
X01995Y0284
Y02965
X0207Y0305
X0208Y0311
X02195Y02845
X0216Y0268
X02405Y0269
X02465Y027
X02515Y02735
Y0279
X02495Y0283
X0247Y02865
X024648Y0304
X025454Y030694
X02635Y0303
X0262Y02995
X0265Y0312
X02705Y03105
X0274Y03045
X02885Y0309
Y0299
X03025Y0306
X02835Y0261
X0285Y0253
X0252Y025
X02455Y02385
X02405Y02615
X02545Y0269
X02605
X0258Y02725
X0246Y02045
X02315Y0202
Y03165
X0226Y03175
X02205Y03185
X0241Y0319
X02565Y03215
X02535Y03255
X02545Y0329
X02565Y03325
X0247Y0332
X02455Y03385
X02405Y03375
Y0343
X0234Y034
Y03365
X02305Y0347
X0234Y03525
Y0359
X02345Y0365
X0232Y03685
X02405Y0369
X02425Y03655
X02575Y0366
X02555Y0362
X0254Y0357
X02705Y03585
X0281Y0353
X02875Y03455
Y03345
X0294Y03375
X02985Y0343
X03025Y03465
X03005Y03495
X03085Y0346
X0312
X0308Y0387
X03075Y04035
X02915Y0406
X0286Y04085
X027Y0407
X02655
X026Y04095
X0264Y04135
X02485Y0413
X0248Y04085
X025Y0401
X0228Y04045
X0223Y041
X02285Y04255
X02075Y04215
X0201Y04385
X02005Y0396
X02175Y03795
X0222Y0374
X0218Y0364
X021844Y034956
X02165Y0347
X02055Y03525
X02065Y03385
X0268Y0344
X0277Y0331
X02775Y0325
X0276Y03155
X0267Y0315
X0266Y0372
X02625Y0375
X0271
X02695Y0384
X02785Y03865
X02835
X02885
X02825Y0454
X02735Y04625
X02365
X0233Y045
X02445Y0453
X0315Y0458
X03235Y04555
X0334Y04485
X0337Y04595
X03505Y0457
X03615Y0445
X03635Y0432
X03565Y04245
X0346Y04295
X0348Y0416
X03435Y04035
X034425Y0399
X03435Y0395
X03495Y03875
Y0374
X03415Y03565
X03395Y0349
X0339Y0343
X03415Y0339
X03375Y0329
X03305Y0332
X03245Y03325
X03205Y03295
X0313
Y03375
X031712Y034622
X03245Y03435
X03255Y034
X03235Y0357
Y03695
X0333Y03835
X0332Y03925
X0334Y04035
X03265Y04065
X0315
X0314Y04265
X03205Y0434
X03295
X0314Y0442
X0389Y04325
X0354Y03525
X0358Y0348
X0349Y03485
X0345Y035
X03445Y03145
X03315Y03135
Y03195
X03635Y03135
X0379Y0314
T02
X021087Y024263
Y025837
T03
X021Y035782
Y036766
Y03775
Y038735
X0236Y03835
Y03735
Y03935
Y04035
Y04135
X026208Y046
X02935
T04
X037205Y024606
Y025787
X038386
Y026969
X037205
Y02815
X038386
Y024606
Y038386
Y039567
X037205
Y040748
X038386
Y041929
X037205
Y038386
T05
X037795Y02126
X02126
Y045276
X037795
M30
