G04 Layer_Physical_Order=2*
G04 Layer_Color=16711680*
%FSLAX25Y25*%
%MOIN*%
G70*
G01*
G75*
%ADD10R,0.03543X0.03150*%
%ADD11R,0.03150X0.03543*%
%ADD17R,0.02559X0.07874*%
%ADD20C,0.03937*%
%ADD21R,0.06299X0.04921*%
%ADD32C,0.01181*%
%ADD33C,0.01575*%
%ADD35C,0.01969*%
%ADD36C,0.07874*%
%ADD38C,0.07087*%
%ADD39R,0.07087X0.07087*%
%ADD40C,0.02165*%
%ADD41C,0.14173*%
%ADD42R,0.09843X0.09843*%
%ADD43C,0.09843*%
%ADD44O,0.09843X0.08661*%
%ADD45O,0.09843X0.08661*%
%ADD46C,0.02362*%
%ADD47R,0.09843X0.05906*%
%ADD48R,0.27559X0.27559*%
%ADD49R,0.05512X0.06299*%
%ADD50R,0.02756X0.05512*%
%ADD51R,0.04724X0.05512*%
G36*
X382616Y468270D02*
X384362Y467804D01*
X386031Y467113D01*
X387596Y466211D01*
X389030Y465111D01*
X390308Y463833D01*
X391407Y462400D01*
X392310Y460835D01*
X393001Y459165D01*
X393467Y457419D01*
X393702Y455628D01*
X393701Y454724D01*
X393701D01*
Y454724D01*
X393701D01*
X393701Y214567D01*
X393768Y213545D01*
X393654Y211500D01*
X393295Y209484D01*
X392694Y207525D01*
X391861Y205654D01*
X390808Y203898D01*
X389550Y202281D01*
X388107Y200828D01*
X386498Y199560D01*
X384748Y198495D01*
X382882Y197650D01*
X380928Y197037D01*
X379921Y196850D01*
X379921Y196850D01*
Y196850D01*
X210630D01*
X209623Y197037D01*
X207669Y197650D01*
X205803Y198495D01*
X204053Y199560D01*
X202445Y200828D01*
X201001Y202281D01*
X199743Y203898D01*
X198690Y205654D01*
X197857Y207526D01*
X197257Y209484D01*
X196897Y211500D01*
X196783Y213545D01*
X196850Y214567D01*
X196850D01*
X196850Y452756D01*
X196786Y453724D01*
X196911Y455659D01*
X197287Y457562D01*
X197908Y459399D01*
X198764Y461140D01*
X199840Y462754D01*
X201117Y464214D01*
X202574Y465494D01*
X204186Y466573D01*
X205924Y467433D01*
X207760Y468059D01*
X209662Y468439D01*
X210630Y468504D01*
Y468504D01*
X301181Y468504D01*
X379921D01*
X380825Y468505D01*
X382616Y468270D01*
D02*
G37*
%LPC*%
G36*
X332000Y253350D02*
X329925D01*
Y251079D01*
X332000D01*
Y253350D01*
D02*
G37*
G36*
X210874Y244533D02*
X210144Y244388D01*
X209526Y243974D01*
X209112Y243356D01*
X208967Y242626D01*
X209112Y241896D01*
X209526Y241278D01*
X210144Y240864D01*
X210874Y240719D01*
X211604Y240864D01*
X212222Y241278D01*
X212636Y241896D01*
X212781Y242626D01*
X212636Y243356D01*
X212222Y243974D01*
X211604Y244388D01*
X210874Y244533D01*
D02*
G37*
G36*
X335075Y253350D02*
X333000D01*
Y251079D01*
X335075D01*
Y253350D01*
D02*
G37*
G36*
Y256622D02*
X333000D01*
Y254350D01*
X335075D01*
Y256622D01*
D02*
G37*
G36*
X332000D02*
X329925D01*
Y254350D01*
X332000D01*
Y256622D01*
D02*
G37*
G36*
X322280Y243433D02*
X320500D01*
Y238996D01*
X322280D01*
Y243433D01*
D02*
G37*
G36*
Y237996D02*
X320500D01*
Y233559D01*
X322280D01*
Y237996D01*
D02*
G37*
G36*
X319500D02*
X317721D01*
Y233559D01*
X319500D01*
Y237996D01*
D02*
G37*
G36*
X302067Y243220D02*
X297933D01*
Y233772D01*
X302067D01*
Y243220D01*
D02*
G37*
G36*
X319500Y243433D02*
X317721D01*
Y238996D01*
X319500D01*
Y243433D01*
D02*
G37*
G36*
X307067Y243220D02*
X302933D01*
Y233772D01*
X307067D01*
Y243220D01*
D02*
G37*
G36*
X311209Y302862D02*
X306091D01*
Y298138D01*
X307044D01*
Y294862D01*
X306091D01*
Y290138D01*
X311209D01*
Y294862D01*
X310255D01*
Y298138D01*
X311209D01*
Y302862D01*
D02*
G37*
G36*
X325059Y294862D02*
X319941D01*
Y290138D01*
X320544D01*
Y287362D01*
X319591D01*
Y284712D01*
X318909Y284031D01*
X318722Y284054D01*
X318409Y284205D01*
Y287362D01*
X313291D01*
Y282638D01*
X313394D01*
Y280228D01*
X312933D01*
Y270779D01*
X317067D01*
Y280228D01*
X316606D01*
Y282638D01*
X318394Y282638D01*
X318394Y282433D01*
Y280228D01*
X317933D01*
Y270779D01*
X322067D01*
Y280228D01*
X321606D01*
Y282185D01*
X322058Y282638D01*
X324709D01*
Y287362D01*
X323755D01*
Y290138D01*
X325059D01*
Y294862D01*
D02*
G37*
G36*
X318909Y302862D02*
X313791D01*
Y298138D01*
X314595D01*
Y294862D01*
X313642D01*
Y290138D01*
X318760D01*
Y294862D01*
X317806D01*
Y298138D01*
X318909D01*
Y302862D01*
D02*
G37*
G36*
X207000Y307007D02*
X206232Y306854D01*
X205581Y306419D01*
X205146Y305768D01*
X204993Y305000D01*
X205146Y304232D01*
X205581Y303581D01*
X206232Y303146D01*
X207000Y302993D01*
X207017Y302996D01*
X211006Y299007D01*
X211462Y298702D01*
X212000Y298595D01*
X242484D01*
X243022Y298702D01*
X243478Y299007D01*
X246467Y301996D01*
X246484Y301993D01*
X247252Y302146D01*
X247903Y302581D01*
X248339Y303232D01*
X248491Y304000D01*
X248339Y304768D01*
X247903Y305419D01*
X247252Y305854D01*
X246484Y306007D01*
X245716Y305854D01*
X245065Y305419D01*
X244630Y304768D01*
X244477Y304000D01*
X244480Y303983D01*
X241902Y301405D01*
X212582D01*
X209004Y304983D01*
X209007Y305000D01*
X208854Y305768D01*
X208419Y306419D01*
X207768Y306854D01*
X207000Y307007D01*
D02*
G37*
G36*
X302500Y308007D02*
X301732Y307854D01*
X301081Y307419D01*
X300646Y306768D01*
X300493Y306000D01*
X300646Y305232D01*
X300945Y304783D01*
Y302862D01*
X299791D01*
Y298138D01*
X304909D01*
Y302862D01*
X303755D01*
Y304471D01*
X303919Y304581D01*
X304354Y305232D01*
X304507Y306000D01*
X304354Y306768D01*
X303919Y307419D01*
X303268Y307854D01*
X302500Y308007D01*
D02*
G37*
G36*
X251500Y281007D02*
X250732Y280854D01*
X250081Y280419D01*
X249646Y279768D01*
X249493Y279000D01*
X249646Y278232D01*
X250081Y277581D01*
X250095Y277571D01*
Y274929D01*
X250081Y274919D01*
X249646Y274268D01*
X249493Y273500D01*
X249646Y272732D01*
X250081Y272081D01*
X250732Y271646D01*
X251500Y271493D01*
X252268Y271646D01*
X252919Y272081D01*
X253354Y272732D01*
X253507Y273500D01*
X253354Y274268D01*
X252919Y274919D01*
X252905Y274929D01*
Y277571D01*
X252919Y277581D01*
X253354Y278232D01*
X253507Y279000D01*
X253354Y279768D01*
X252919Y280419D01*
X252268Y280854D01*
X251500Y281007D01*
D02*
G37*
G36*
X372047Y287254D02*
X370557Y287058D01*
X369168Y286483D01*
X367976Y285567D01*
X367061Y284375D01*
X366486Y282986D01*
X366289Y281496D01*
X366486Y280006D01*
X367061Y278617D01*
X367976Y277425D01*
X369168Y276510D01*
X370557Y275934D01*
X371253Y275843D01*
Y275338D01*
X370557Y275247D01*
X369168Y274672D01*
X367976Y273757D01*
X367061Y272564D01*
X366486Y271175D01*
X366289Y269685D01*
X366486Y268195D01*
X367061Y266806D01*
X367976Y265614D01*
X369168Y264699D01*
X370557Y264123D01*
X371253Y264032D01*
Y263527D01*
X370557Y263436D01*
X369168Y262860D01*
X367976Y261946D01*
X367061Y260753D01*
X367000Y260606D01*
X359966D01*
X359731Y261047D01*
X359854Y261232D01*
X360007Y262000D01*
X359854Y262768D01*
X359419Y263419D01*
X359298Y263500D01*
Y264000D01*
X359419Y264081D01*
X359854Y264732D01*
X360007Y265500D01*
X359854Y266268D01*
X359419Y266919D01*
X359298Y267000D01*
Y267500D01*
X359419Y267581D01*
X359854Y268232D01*
X360007Y269000D01*
X359854Y269768D01*
X359419Y270419D01*
X358768Y270854D01*
X358000Y271007D01*
X357232Y270854D01*
X356581Y270419D01*
X356571Y270405D01*
X345082D01*
X344993Y270493D01*
X344538Y270798D01*
X344000Y270905D01*
X343929D01*
X343919Y270919D01*
X343268Y271354D01*
X342500Y271507D01*
X341732Y271354D01*
X341081Y270919D01*
X340646Y270268D01*
X340493Y269500D01*
X340646Y268732D01*
X341081Y268081D01*
X341202Y268000D01*
Y267500D01*
X341081Y267419D01*
X340646Y266768D01*
X340493Y266000D01*
X340646Y265232D01*
X341081Y264581D01*
X341202Y264500D01*
Y264000D01*
X341081Y263919D01*
X340646Y263268D01*
X340493Y262500D01*
X340646Y261732D01*
X341081Y261081D01*
X341202Y261000D01*
Y260500D01*
X341081Y260419D01*
X340646Y259768D01*
X340493Y259000D01*
X340646Y258232D01*
X341081Y257581D01*
X341732Y257146D01*
X342500Y256993D01*
X343268Y257146D01*
X343640Y257394D01*
X366353D01*
X366486Y256384D01*
X367061Y254995D01*
X367976Y253803D01*
X369168Y252888D01*
X370557Y252312D01*
X371253Y252221D01*
Y251716D01*
X370557Y251625D01*
X369168Y251049D01*
X367976Y250134D01*
X367061Y248942D01*
X366486Y247553D01*
X366289Y246063D01*
X366486Y244573D01*
X367061Y243184D01*
X367976Y241991D01*
X369168Y241076D01*
X370557Y240501D01*
X372047Y240305D01*
X373537Y240501D01*
X374926Y241076D01*
X376119Y241991D01*
X377034Y243184D01*
X377609Y244573D01*
X377650Y244881D01*
X378150Y244849D01*
Y240354D01*
X389567D01*
Y251772D01*
X385073D01*
X385040Y252272D01*
X385349Y252312D01*
X386737Y252888D01*
X387930Y253803D01*
X388845Y254995D01*
X389420Y256384D01*
X389616Y257874D01*
X389420Y259364D01*
X388845Y260753D01*
X387930Y261946D01*
X386737Y262860D01*
X385349Y263436D01*
X384652Y263527D01*
Y264032D01*
X385349Y264123D01*
X386737Y264699D01*
X387930Y265614D01*
X388845Y266806D01*
X389420Y268195D01*
X389616Y269685D01*
X389420Y271175D01*
X388845Y272564D01*
X387930Y273757D01*
X386737Y274672D01*
X385349Y275247D01*
X383858Y275443D01*
X382368Y275247D01*
X380979Y274672D01*
X379787Y273757D01*
X378872Y272564D01*
X378296Y271175D01*
X378205Y270479D01*
X377701D01*
X377609Y271175D01*
X377034Y272564D01*
X376119Y273757D01*
X374926Y274672D01*
X373537Y275247D01*
X372842Y275338D01*
Y275843D01*
X373537Y275934D01*
X374926Y276510D01*
X376119Y277425D01*
X377034Y278617D01*
X377609Y280006D01*
X377805Y281496D01*
X377609Y282986D01*
X377034Y284375D01*
X376119Y285567D01*
X374926Y286483D01*
X373537Y287058D01*
X372047Y287254D01*
D02*
G37*
G36*
X210874Y260281D02*
X210144Y260136D01*
X209526Y259722D01*
X209112Y259104D01*
X208967Y258374D01*
X209112Y257644D01*
X209526Y257026D01*
X210144Y256612D01*
X210874Y256467D01*
X211604Y256612D01*
X212222Y257026D01*
X212636Y257644D01*
X212781Y258374D01*
X212636Y259104D01*
X212222Y259722D01*
X211604Y260136D01*
X210874Y260281D01*
D02*
G37*
G36*
X249500Y285007D02*
X248732Y284854D01*
X248081Y284419D01*
X247646Y283768D01*
X247558Y283329D01*
X245365Y281135D01*
X245017Y280614D01*
X244894Y280000D01*
X244894Y280000D01*
Y271140D01*
X244646Y270768D01*
X244493Y270000D01*
X244646Y269232D01*
X245081Y268581D01*
X245732Y268146D01*
X246500Y267993D01*
X247268Y268146D01*
X247919Y268581D01*
X248354Y269232D01*
X248507Y270000D01*
X248354Y270768D01*
X248106Y271140D01*
Y279335D01*
X249829Y281058D01*
X250268Y281146D01*
X250919Y281581D01*
X251354Y282232D01*
X251507Y283000D01*
X251354Y283768D01*
X250919Y284419D01*
X250268Y284854D01*
X249500Y285007D01*
D02*
G37*
G36*
X327067Y280228D02*
X322933D01*
Y270780D01*
X322933Y270779D01*
X322933D01*
X322644Y270415D01*
X321835Y269606D01*
X319500D01*
X318885Y269483D01*
X318365Y269135D01*
X314335Y265106D01*
X306665D01*
X301606Y270165D01*
Y270779D01*
X302067D01*
Y280228D01*
X297933D01*
Y270779D01*
X298394D01*
Y269500D01*
X298394Y269500D01*
X298517Y268885D01*
X298865Y268365D01*
X304865Y262365D01*
X305385Y262017D01*
X306000Y261894D01*
X313394D01*
Y256500D01*
Y243220D01*
X312933D01*
Y233772D01*
X317067D01*
Y243220D01*
X316606D01*
Y254894D01*
X323500D01*
X323500Y254894D01*
X324114Y255017D01*
X324635Y255365D01*
X327815Y258544D01*
X330138D01*
Y257591D01*
X334862D01*
Y262709D01*
X330138D01*
Y261755D01*
X327150D01*
X327150Y261755D01*
X326535Y261633D01*
X326014Y261285D01*
X326014Y261285D01*
X322835Y258106D01*
X316606D01*
Y262835D01*
X320165Y266394D01*
X322500D01*
X322500Y266394D01*
X323114Y266517D01*
X323635Y266865D01*
X326135Y269365D01*
X326135Y269365D01*
X326483Y269885D01*
X326606Y270500D01*
Y270779D01*
X327067D01*
Y280228D01*
D02*
G37*
G36*
X304909Y294862D02*
X299791D01*
Y290138D01*
X300745D01*
Y287362D01*
X299791D01*
Y282638D01*
X302442D01*
X303394Y281685D01*
Y280228D01*
X302933D01*
Y270779D01*
X307067D01*
Y280228D01*
X306606D01*
Y282350D01*
X306841Y282638D01*
X308394D01*
Y280228D01*
X307933D01*
Y270779D01*
X312067D01*
Y280228D01*
X311606D01*
Y283649D01*
X311606Y283650D01*
X311483Y284264D01*
X311209Y284675D01*
Y287362D01*
X306091D01*
Y284184D01*
X305629Y283993D01*
X304909Y284712D01*
Y287362D01*
X303956D01*
Y290138D01*
X304909D01*
Y294862D01*
D02*
G37*
G36*
X274075Y219701D02*
X272000D01*
Y217429D01*
X274075D01*
Y219701D01*
D02*
G37*
G36*
X271000D02*
X268925D01*
Y217429D01*
X271000D01*
Y219701D01*
D02*
G37*
G36*
X327150Y221500D02*
X324878D01*
Y219425D01*
X327150D01*
Y221500D01*
D02*
G37*
G36*
X312362Y225409D02*
X307638D01*
Y220291D01*
X308595D01*
Y218082D01*
X304918Y214405D01*
X304429D01*
X304419Y214419D01*
X303768Y214854D01*
X303000Y215007D01*
X302232Y214854D01*
X301581Y214419D01*
X301146Y213768D01*
X300993Y213000D01*
X301146Y212232D01*
X301581Y211581D01*
X302232Y211146D01*
X303000Y210993D01*
X303768Y211146D01*
X304419Y211581D01*
X304429Y211595D01*
X305500D01*
X306038Y211702D01*
X306493Y212007D01*
X310993Y216507D01*
X311298Y216962D01*
X311405Y217500D01*
X311405Y217500D01*
Y220291D01*
X312362D01*
Y221245D01*
X318791D01*
Y219638D01*
X323909D01*
Y224362D01*
X320972D01*
X320500Y224456D01*
X320500Y224456D01*
X312362D01*
Y225409D01*
D02*
G37*
G36*
X330421Y221500D02*
X328150D01*
Y219425D01*
X330421D01*
Y221500D01*
D02*
G37*
G36*
X291622Y212075D02*
X289350D01*
Y210000D01*
X291622D01*
Y212075D01*
D02*
G37*
G36*
X377953Y226378D02*
X377056Y226357D01*
X375282Y226087D01*
X373556Y225595D01*
X371906Y224888D01*
X370359Y223979D01*
X368940Y222881D01*
X367671Y221611D01*
X366572Y220192D01*
X365663Y218645D01*
X364956Y216996D01*
X364464Y215270D01*
X364195Y213495D01*
X364173Y212598D01*
Y211514D01*
X364512Y209372D01*
X365183Y207309D01*
X366167Y205376D01*
X367442Y203622D01*
X368976Y202088D01*
X370731Y200813D01*
X372663Y199828D01*
X374726Y199158D01*
X376868Y198819D01*
X379037D01*
X381179Y199158D01*
X383242Y199828D01*
X385175Y200813D01*
X386929Y202088D01*
X388463Y203622D01*
X389738Y205376D01*
X390723Y207309D01*
X391393Y209372D01*
X391732Y211514D01*
Y212598D01*
X391732Y212598D01*
X391732Y212598D01*
X391711Y213495D01*
X391441Y215270D01*
X390949Y216996D01*
X390243Y218645D01*
X389333Y220192D01*
X388235Y221611D01*
X386966Y222881D01*
X385546Y223979D01*
X383999Y224888D01*
X382350Y225595D01*
X380624Y226087D01*
X378850Y226357D01*
X377953Y226378D01*
D02*
G37*
G36*
X212598D02*
X211701Y226357D01*
X209927Y226087D01*
X208201Y225595D01*
X206552Y224888D01*
X205005Y223979D01*
X203585Y222881D01*
X202316Y221611D01*
X201218Y220192D01*
X200308Y218645D01*
X199602Y216996D01*
X199110Y215270D01*
X198840Y213495D01*
X198819Y212598D01*
Y211514D01*
X199158Y209372D01*
X199828Y207309D01*
X200813Y205376D01*
X202088Y203622D01*
X203622Y202088D01*
X205376Y200813D01*
X207309Y199828D01*
X209372Y199158D01*
X211514Y198819D01*
X213683D01*
X215825Y199158D01*
X217888Y199828D01*
X219820Y200813D01*
X221575Y202088D01*
X223109Y203622D01*
X224384Y205376D01*
X225368Y207309D01*
X226039Y209372D01*
X226378Y211514D01*
X226378Y212598D01*
X226357Y213495D01*
X226087Y215270D01*
X225595Y216996D01*
X224888Y218645D01*
X223979Y220192D01*
X222881Y221611D01*
X221611Y222881D01*
X220192Y223979D01*
X218645Y224888D01*
X216996Y225595D01*
X215270Y226087D01*
X213495Y226357D01*
X212598Y226378D01*
D02*
G37*
G36*
X288350Y209000D02*
X286079D01*
Y206925D01*
X288350D01*
Y209000D01*
D02*
G37*
G36*
Y212075D02*
X286079D01*
Y210000D01*
X288350D01*
Y212075D01*
D02*
G37*
G36*
X291622Y209000D02*
X289350D01*
Y206925D01*
X291622D01*
Y209000D01*
D02*
G37*
G36*
X327067Y243220D02*
X322933D01*
Y233772D01*
X324801D01*
X325212Y233272D01*
X325143Y232925D01*
X325255Y232362D01*
X324937Y231862D01*
X324591D01*
Y227138D01*
X329709D01*
Y231862D01*
X329362D01*
X329045Y232362D01*
X329157Y232925D01*
X329004Y233693D01*
X328755Y234065D01*
Y236350D01*
X328755Y236350D01*
X328633Y236965D01*
X328285Y237486D01*
X328285Y237486D01*
X327067Y238704D01*
Y243220D01*
D02*
G37*
G36*
X323622Y229000D02*
X321350D01*
Y226925D01*
X323622D01*
Y229000D01*
D02*
G37*
G36*
X320350Y232075D02*
X318079D01*
Y230000D01*
X320350D01*
Y232075D01*
D02*
G37*
G36*
X287067Y243220D02*
X282933D01*
Y233772D01*
X283394D01*
Y232500D01*
X283394Y232500D01*
X283517Y231886D01*
X283865Y231365D01*
X284767Y230462D01*
X284576Y230000D01*
X281606D01*
Y233772D01*
X282067D01*
Y243220D01*
X277933D01*
Y233772D01*
X278394D01*
Y230000D01*
X276500D01*
Y228106D01*
X273862D01*
Y229059D01*
X269138D01*
Y223941D01*
X273862D01*
Y224894D01*
X276500D01*
Y214000D01*
X293678D01*
Y211862D01*
X292591D01*
Y207138D01*
X297709D01*
Y211862D01*
X296889D01*
Y214000D01*
X299500D01*
Y230000D01*
X289726D01*
X289635Y230135D01*
X289635Y230135D01*
X286606Y233165D01*
Y233772D01*
X287067D01*
Y243220D01*
D02*
G37*
G36*
X323622Y232075D02*
X321350D01*
Y230000D01*
X323622D01*
Y232075D01*
D02*
G37*
G36*
X320350Y229000D02*
X318079D01*
Y226925D01*
X320350D01*
Y229000D01*
D02*
G37*
G36*
X274075Y222972D02*
X272000D01*
Y220701D01*
X274075D01*
Y222972D01*
D02*
G37*
G36*
X271000D02*
X268925D01*
Y220701D01*
X271000D01*
Y222972D01*
D02*
G37*
G36*
X327150Y224575D02*
X324878D01*
Y222500D01*
X327150D01*
Y224575D01*
D02*
G37*
G36*
X312067Y243220D02*
X307933D01*
Y233772D01*
X308394D01*
Y231709D01*
X307638D01*
Y230555D01*
X307150D01*
X306612Y230448D01*
X306156Y230143D01*
X303007Y226993D01*
X302702Y226538D01*
X302595Y226000D01*
Y220429D01*
X302581Y220419D01*
X302146Y219768D01*
X301993Y219000D01*
X302146Y218232D01*
X302581Y217581D01*
X303232Y217146D01*
X304000Y216993D01*
X304768Y217146D01*
X305419Y217581D01*
X305854Y218232D01*
X306007Y219000D01*
X305854Y219768D01*
X305419Y220419D01*
X305405Y220429D01*
Y225418D01*
X307176Y227189D01*
X307638Y226998D01*
Y226591D01*
X312362D01*
Y231709D01*
X311606D01*
Y233772D01*
X312067D01*
Y243220D01*
D02*
G37*
G36*
X330421Y224575D02*
X328150D01*
Y222500D01*
X330421D01*
Y224575D01*
D02*
G37*
G36*
X250480Y420130D02*
X247618D01*
Y416874D01*
X250480D01*
Y420130D01*
D02*
G37*
G36*
X312216D02*
X308961D01*
Y416480D01*
X312216D01*
Y420130D01*
D02*
G37*
G36*
X250480Y424386D02*
X247618D01*
Y421130D01*
X250480D01*
Y424386D01*
D02*
G37*
G36*
X254500Y428905D02*
X242500D01*
X241962Y428798D01*
X241507Y428493D01*
X235007Y421993D01*
X234884Y421810D01*
X234267Y421720D01*
X230504Y425483D01*
X230507Y425500D01*
X230354Y426268D01*
X229919Y426919D01*
X229268Y427354D01*
X228500Y427507D01*
X227732Y427354D01*
X227081Y426919D01*
X226646Y426268D01*
X226493Y425500D01*
X226646Y424732D01*
X227081Y424081D01*
X227732Y423646D01*
X228500Y423493D01*
X228517Y423496D01*
X233720Y418293D01*
X233529Y417831D01*
X231669D01*
Y409169D01*
X240331D01*
Y417831D01*
X237405D01*
Y420418D01*
X243082Y426095D01*
X253918D01*
X255507Y424507D01*
X255962Y424202D01*
X256500Y424095D01*
X273918D01*
X275702Y422311D01*
X275625Y421811D01*
X274996Y421811D01*
X274496Y421811D01*
X270878D01*
Y422024D01*
X269000D01*
Y418268D01*
X268000D01*
Y422024D01*
X266122D01*
Y421811D01*
X262504D01*
X262004Y421811D01*
X261504Y421811D01*
X258173D01*
X257673Y421811D01*
X257173Y421811D01*
X254343D01*
Y424386D01*
X251480D01*
Y420630D01*
Y416874D01*
X253343D01*
Y414724D01*
X257173D01*
X257673Y414724D01*
X258173Y414724D01*
X261849Y414724D01*
X262122Y414342D01*
X262137Y414224D01*
X262027Y413671D01*
X261785Y413494D01*
X261614Y413402D01*
X261508Y413375D01*
X261060Y413464D01*
X257559D01*
X257021Y413357D01*
X256566Y413053D01*
X251975Y408462D01*
X251671Y408006D01*
X251564Y407469D01*
Y402924D01*
X251063Y402657D01*
X250768Y402854D01*
X250000Y403007D01*
X249232Y402854D01*
X248581Y402419D01*
X248146Y401768D01*
X247993Y401000D01*
X247996Y400983D01*
X245507Y398493D01*
X245202Y398038D01*
X245095Y397500D01*
Y369582D01*
X244507Y368993D01*
X244202Y368538D01*
X244095Y368000D01*
Y367403D01*
X243595Y367136D01*
X243268Y367354D01*
X242500Y367507D01*
X242467Y367500D01*
X242166Y367951D01*
X242354Y368232D01*
X242507Y369000D01*
X242354Y369768D01*
X241919Y370419D01*
X241268Y370854D01*
X240500Y371007D01*
X240118Y370931D01*
X239912Y371168D01*
X239809Y371379D01*
X240219Y372370D01*
X240368Y373500D01*
X240219Y374630D01*
X239783Y375684D01*
X239089Y376589D01*
X238184Y377283D01*
X237130Y377719D01*
X236000Y377868D01*
X234870Y377719D01*
X233816Y377283D01*
X232911Y376589D01*
X232217Y375684D01*
X231894Y374905D01*
X223763D01*
X223419Y375419D01*
X222768Y375854D01*
X222000Y376007D01*
X221232Y375854D01*
X220581Y375419D01*
X220146Y374768D01*
X219993Y374000D01*
X220146Y373232D01*
X220581Y372581D01*
X221232Y372146D01*
X222000Y371993D01*
X222513Y372095D01*
X231894D01*
X232217Y371316D01*
X232527Y370912D01*
X232245Y370458D01*
X232000Y370507D01*
X231232Y370354D01*
X230581Y369919D01*
X230571Y369905D01*
X222082D01*
X218905Y373082D01*
Y378071D01*
X218919Y378081D01*
X219354Y378732D01*
X219507Y379500D01*
X219354Y380268D01*
X218919Y380919D01*
X218268Y381354D01*
X217500Y381507D01*
X216732Y381354D01*
X216081Y380919D01*
X215646Y380268D01*
X215493Y379500D01*
X215646Y378732D01*
X216081Y378081D01*
X216095Y378071D01*
Y372500D01*
X216202Y371962D01*
X216507Y371507D01*
X220507Y367507D01*
X220962Y367202D01*
X221500Y367095D01*
X230402D01*
X230573Y366905D01*
X230350Y366405D01*
X227000D01*
X226462Y366298D01*
X226007Y365993D01*
X223168Y363155D01*
X220832D01*
X220004Y363983D01*
X220007Y364000D01*
X219854Y364768D01*
X219419Y365419D01*
X218768Y365854D01*
X218000Y366007D01*
X217232Y365854D01*
X216581Y365419D01*
X216146Y364768D01*
X215993Y364000D01*
X216146Y363232D01*
X216581Y362581D01*
X217232Y362146D01*
X218000Y361993D01*
X218017Y361996D01*
X219257Y360757D01*
X219712Y360452D01*
X220250Y360345D01*
X223750D01*
X224288Y360452D01*
X224743Y360757D01*
X227582Y363595D01*
X233071D01*
X233081Y363581D01*
X233732Y363146D01*
X234500Y362993D01*
X235154Y363123D01*
X235654Y362848D01*
Y354364D01*
X235154Y354096D01*
X234768Y354354D01*
X234000Y354507D01*
X233232Y354354D01*
X232581Y353919D01*
X232146Y353268D01*
X231993Y352500D01*
X232123Y351846D01*
X231848Y351346D01*
X220059D01*
X219521Y351239D01*
X219496Y351222D01*
X219209Y351413D01*
X218441Y351566D01*
X217673Y351413D01*
X217022Y350978D01*
X216587Y350327D01*
X216434Y349559D01*
X216448Y349488D01*
X216052Y348918D01*
X215732Y348854D01*
X215081Y348419D01*
X214646Y347768D01*
X214493Y347000D01*
X214550Y346711D01*
X214089Y346465D01*
X207371Y353184D01*
X207354Y353268D01*
X206919Y353919D01*
X206268Y354354D01*
X205500Y354507D01*
X204732Y354354D01*
X204081Y353919D01*
X203646Y353268D01*
X203493Y352500D01*
X203646Y351732D01*
X204081Y351081D01*
X204732Y350646D01*
X204817Y350629D01*
X214223Y341223D01*
X214809Y340831D01*
X215500Y340694D01*
X222411D01*
X256194Y306911D01*
Y293000D01*
X256331Y292309D01*
X256723Y291723D01*
X259194Y289252D01*
Y276248D01*
X257316Y274371D01*
X257232Y274354D01*
X256581Y273919D01*
X256146Y273268D01*
X255993Y272500D01*
X256146Y271732D01*
X256581Y271081D01*
X256844Y270905D01*
X256692Y270405D01*
X255929D01*
X255919Y270419D01*
X255268Y270854D01*
X254500Y271007D01*
X253732Y270854D01*
X253081Y270419D01*
X252646Y269768D01*
X252493Y269000D01*
X252646Y268232D01*
X253081Y267581D01*
X253732Y267146D01*
X254500Y266993D01*
X255268Y267146D01*
X255919Y267581D01*
X255929Y267595D01*
X259071D01*
X259081Y267581D01*
X259732Y267146D01*
X260500Y266993D01*
X261268Y267146D01*
X261595Y267364D01*
X262095Y267097D01*
Y252000D01*
X262202Y251462D01*
X262507Y251007D01*
X266095Y247418D01*
Y234582D01*
X265017Y233504D01*
X265000Y233507D01*
X264232Y233354D01*
X263581Y232919D01*
X263146Y232268D01*
X262993Y231500D01*
X263146Y230732D01*
X263581Y230081D01*
X264232Y229646D01*
X265000Y229493D01*
X265768Y229646D01*
X266419Y230081D01*
X266854Y230732D01*
X267007Y231500D01*
X267004Y231517D01*
X268493Y233007D01*
X268798Y233462D01*
X268905Y234000D01*
Y248000D01*
X268798Y248538D01*
X268493Y248993D01*
X264905Y252582D01*
Y298000D01*
X264798Y298538D01*
X264493Y298993D01*
X264004Y299483D01*
X264007Y299500D01*
X263854Y300268D01*
X263686Y300520D01*
X263916Y301076D01*
X264268Y301146D01*
X264919Y301581D01*
X264929Y301595D01*
X265500D01*
X266038Y301702D01*
X266493Y302007D01*
X270582Y306095D01*
X272097D01*
X272364Y305595D01*
X272146Y305268D01*
X271993Y304500D01*
X272079Y304066D01*
X269007Y300993D01*
X268702Y300538D01*
X268595Y300000D01*
Y252000D01*
X268702Y251462D01*
X269007Y251007D01*
X274007Y246007D01*
X274462Y245702D01*
X275000Y245595D01*
X286918D01*
X288095Y244418D01*
Y243220D01*
X287933D01*
Y233772D01*
X292067D01*
Y243220D01*
X290905D01*
Y245000D01*
X290798Y245538D01*
X290493Y245993D01*
X289385Y247102D01*
X289577Y247564D01*
X290950D01*
X293095Y245418D01*
Y243220D01*
X292933D01*
Y233772D01*
X297067D01*
Y243220D01*
X295905D01*
Y246000D01*
X295798Y246538D01*
X295493Y246993D01*
X292525Y249962D01*
X292069Y250267D01*
X291531Y250374D01*
X276397D01*
X273374Y253397D01*
Y268432D01*
X273873Y268640D01*
X275507Y267007D01*
X275962Y266702D01*
X276500Y266595D01*
X292500D01*
X293038Y266702D01*
X293493Y267007D01*
X295993Y269507D01*
X296298Y269962D01*
X296405Y270500D01*
Y270779D01*
X297067D01*
Y280228D01*
X292933D01*
Y270779D01*
X292933D01*
X293038Y270525D01*
X291918Y269405D01*
X285545D01*
X285354Y269867D01*
X285993Y270507D01*
X286176Y270779D01*
X287067D01*
Y280228D01*
X282933D01*
Y271420D01*
X282918Y271405D01*
X282067D01*
Y280228D01*
X281405D01*
Y296418D01*
X283493Y298507D01*
X283595Y298659D01*
X284095Y298507D01*
Y285500D01*
X284202Y284962D01*
X284507Y284507D01*
X288285Y280728D01*
X288078Y280228D01*
X287933D01*
Y270779D01*
X292067D01*
Y280228D01*
X291405D01*
Y281000D01*
X291298Y281538D01*
X290993Y281993D01*
X286905Y286082D01*
Y297097D01*
X287405Y297364D01*
X287732Y297146D01*
X288500Y296993D01*
X289268Y297146D01*
X289919Y297581D01*
X290354Y298232D01*
X290507Y299000D01*
X290354Y299768D01*
X290306Y299840D01*
Y308160D01*
X290354Y308232D01*
X290507Y309000D01*
X290354Y309768D01*
X289919Y310419D01*
X289268Y310854D01*
X288500Y311007D01*
X287732Y310854D01*
X287405Y310636D01*
X286905Y310903D01*
Y316500D01*
X286798Y317038D01*
X286493Y317493D01*
X279421Y324566D01*
X279507Y325000D01*
X279354Y325768D01*
X278919Y326419D01*
X278268Y326854D01*
X277500Y327007D01*
X276732Y326854D01*
X276081Y326419D01*
X275646Y325768D01*
X275493Y325000D01*
X275567Y324627D01*
X275106Y324380D01*
X264905Y334582D01*
Y360500D01*
X264798Y361038D01*
X264493Y361493D01*
X259388Y366599D01*
X259354Y366768D01*
X258919Y367419D01*
X258268Y367854D01*
X257500Y368007D01*
X256732Y367854D01*
X256081Y367419D01*
X255646Y366768D01*
X255493Y366000D01*
X255646Y365232D01*
X256081Y364581D01*
X256732Y364146D01*
X257500Y363993D01*
X257934Y364079D01*
X262095Y359918D01*
Y359045D01*
X261633Y358854D01*
X257493Y362993D01*
X257038Y363298D01*
X256995Y363307D01*
X256919Y363419D01*
X256268Y363854D01*
X255500Y364007D01*
X254732Y363854D01*
X254081Y363419D01*
X253646Y362768D01*
X253493Y362000D01*
X253646Y361232D01*
X254081Y360581D01*
X254732Y360146D01*
X255500Y359993D01*
X256268Y360146D01*
X256328Y360186D01*
X260126Y356386D01*
Y351514D01*
X259665Y351322D01*
X255418Y355569D01*
X255419Y355581D01*
X255854Y356232D01*
X256007Y357000D01*
X255854Y357768D01*
X255419Y358419D01*
X254768Y358854D01*
X254000Y359007D01*
X253310Y358870D01*
X252810Y359103D01*
Y364972D01*
X253399Y365560D01*
X253703Y366016D01*
X253810Y366554D01*
Y366842D01*
X253842Y367000D01*
Y389855D01*
X257595Y393608D01*
X258095Y393401D01*
Y378000D01*
X258202Y377462D01*
X258507Y377007D01*
X260496Y375017D01*
X260493Y375000D01*
X260646Y374232D01*
X261081Y373581D01*
X261732Y373146D01*
X262500Y372993D01*
X263268Y373146D01*
X263919Y373581D01*
X264354Y374232D01*
X264507Y375000D01*
X264354Y375768D01*
X263919Y376419D01*
X263268Y376854D01*
X262500Y377007D01*
X262483Y377004D01*
X260905Y378582D01*
Y393418D01*
X263082Y395595D01*
X278784D01*
X279322Y395702D01*
X279777Y396007D01*
X286116Y402345D01*
X289250D01*
X289788Y402452D01*
X290243Y402757D01*
X291483Y403996D01*
X291500Y403993D01*
X292268Y404146D01*
X292919Y404581D01*
X293354Y405232D01*
X293507Y406000D01*
X293354Y406768D01*
X292919Y407419D01*
X292268Y407854D01*
X291500Y408007D01*
X290732Y407854D01*
X290081Y407419D01*
X289646Y406768D01*
X289493Y406000D01*
X289496Y405983D01*
X288668Y405155D01*
X285534D01*
X284996Y405048D01*
X284540Y404743D01*
X283359Y403562D01*
X282897Y403753D01*
Y414371D01*
X283251Y414724D01*
X283658Y414724D01*
X284242Y414724D01*
X284595Y414371D01*
Y409929D01*
X284581Y409919D01*
X284146Y409268D01*
X283993Y408500D01*
X284146Y407732D01*
X284581Y407081D01*
X285232Y406646D01*
X286000Y406493D01*
X286768Y406646D01*
X287419Y407081D01*
X287854Y407732D01*
X288007Y408500D01*
X287854Y409268D01*
X287419Y409919D01*
X287405Y409929D01*
Y414371D01*
X287758Y414724D01*
X287988D01*
X288488Y414724D01*
X292319D01*
Y421811D01*
X288488D01*
X287988Y421811D01*
X287488Y421811D01*
X284157D01*
X283658Y421811D01*
X283157Y421811D01*
X279827D01*
X279327Y421811D01*
X278920Y421811D01*
X278566Y422165D01*
Y422839D01*
X278459Y423376D01*
X278155Y423832D01*
X275493Y426494D01*
X275038Y426798D01*
X274500Y426905D01*
X257082D01*
X255493Y428493D01*
X255038Y428798D01*
X254500Y428905D01*
D02*
G37*
G36*
X307961Y424780D02*
X304705D01*
Y421130D01*
X307961D01*
Y424780D01*
D02*
G37*
G36*
X315760Y462575D02*
X312504D01*
Y458925D01*
X315760D01*
Y462575D01*
D02*
G37*
G36*
X254736D02*
X251480D01*
Y458925D01*
X254736D01*
Y462575D01*
D02*
G37*
G36*
X311504D02*
X308248D01*
Y458925D01*
X311504D01*
Y462575D01*
D02*
G37*
G36*
X307961Y420130D02*
X304705D01*
Y416480D01*
X307961D01*
Y420130D01*
D02*
G37*
G36*
X326500Y408507D02*
X325732Y408354D01*
X325081Y407919D01*
X325071Y407905D01*
X316429D01*
X316419Y407919D01*
X315768Y408354D01*
X315000Y408507D01*
X314232Y408354D01*
X313581Y407919D01*
X313146Y407268D01*
X312993Y406500D01*
X313146Y405732D01*
X313364Y405405D01*
X313097Y404905D01*
X308929D01*
X308919Y404919D01*
X308268Y405354D01*
X307500Y405507D01*
X306732Y405354D01*
X306081Y404919D01*
X305646Y404268D01*
X305493Y403500D01*
X305646Y402732D01*
X305769Y402547D01*
X305534Y402106D01*
X301159D01*
X300545Y401983D01*
X300024Y401635D01*
X300024Y401635D01*
X292244Y393856D01*
X284250D01*
X284250Y393856D01*
X283635Y393733D01*
X283115Y393385D01*
X283115Y393385D01*
X278171Y388442D01*
X277732Y388354D01*
X277081Y387919D01*
X276646Y387268D01*
X276493Y386500D01*
X276646Y385732D01*
X277064Y385106D01*
X277035Y384966D01*
X276892Y384606D01*
X276000D01*
X275385Y384483D01*
X274865Y384135D01*
X274865Y384135D01*
X269865Y379135D01*
X269517Y378614D01*
X269394Y378000D01*
X269394Y378000D01*
Y376140D01*
X269146Y375768D01*
X268993Y375000D01*
X269146Y374232D01*
X269581Y373581D01*
X270232Y373146D01*
X271000Y372993D01*
X271768Y373146D01*
X272419Y373581D01*
X272854Y374232D01*
X273007Y375000D01*
X272854Y375768D01*
X272606Y376140D01*
Y377335D01*
X276665Y381394D01*
X296000D01*
X296000Y381394D01*
X296615Y381517D01*
X297135Y381865D01*
X300665Y385394D01*
X306860D01*
X307232Y385146D01*
X308000Y384993D01*
X308768Y385146D01*
X309419Y385581D01*
X309854Y386232D01*
X310007Y387000D01*
X309854Y387768D01*
X309419Y388419D01*
X308768Y388854D01*
X308000Y389007D01*
X307232Y388854D01*
X306860Y388606D01*
X300000D01*
X299480Y388502D01*
X299249Y388776D01*
X299185Y388915D01*
X303921Y393650D01*
X329845D01*
X330122Y393150D01*
X329993Y392500D01*
X330146Y391732D01*
X330581Y391081D01*
X330595Y391071D01*
Y384500D01*
X330702Y383962D01*
X330997Y383521D01*
X330993Y383500D01*
X331146Y382732D01*
X331581Y382081D01*
X332232Y381646D01*
X333000Y381493D01*
X333768Y381646D01*
X334419Y382081D01*
X334854Y382732D01*
X335007Y383500D01*
X334854Y384268D01*
X334419Y384919D01*
X333768Y385354D01*
X333405Y385426D01*
Y391071D01*
X333419Y391081D01*
X333854Y391732D01*
X334007Y392500D01*
X333878Y393150D01*
X334155Y393650D01*
X342034D01*
X342081Y393581D01*
X342732Y393146D01*
X343500Y392993D01*
X344268Y393146D01*
X344919Y393581D01*
X345354Y394232D01*
X345507Y395000D01*
X345354Y395768D01*
X344919Y396419D01*
X344692Y396571D01*
X344798Y397102D01*
X345018Y397146D01*
X345669Y397581D01*
X346104Y398232D01*
X346257Y399000D01*
X346104Y399768D01*
X345669Y400419D01*
X345018Y400854D01*
X344250Y401007D01*
X343482Y400854D01*
X343110Y400606D01*
X341084D01*
X340941Y400805D01*
X340858Y401087D01*
X341665Y401894D01*
X342360D01*
X342732Y401646D01*
X343500Y401493D01*
X344268Y401646D01*
X344919Y402081D01*
X345354Y402732D01*
X345507Y403500D01*
X345354Y404268D01*
X344919Y404919D01*
X344268Y405354D01*
X343500Y405507D01*
X342732Y405354D01*
X342360Y405106D01*
X341000D01*
X341000Y405106D01*
X340386Y404983D01*
X339865Y404635D01*
X337335Y402106D01*
X335966D01*
X335731Y402547D01*
X335854Y402732D01*
X336007Y403500D01*
X335854Y404268D01*
X335419Y404919D01*
X334768Y405354D01*
X334000Y405507D01*
X333232Y405354D01*
X332581Y404919D01*
X332571Y404905D01*
X328403D01*
X328136Y405405D01*
X328354Y405732D01*
X328507Y406500D01*
X328354Y407268D01*
X327919Y407919D01*
X327268Y408354D01*
X326500Y408507D01*
D02*
G37*
G36*
X315760Y457925D02*
X312504D01*
Y454276D01*
X315760D01*
Y457925D01*
D02*
G37*
G36*
X311504D02*
X308248D01*
Y454276D01*
X311504D01*
Y457925D01*
D02*
G37*
G36*
X262083Y462780D02*
X261363Y462685D01*
X260693Y462407D01*
X260117Y461966D01*
X259675Y461390D01*
X259398Y460719D01*
X259303Y460000D01*
X259398Y459281D01*
X259675Y458610D01*
X260117Y458035D01*
X260693Y457593D01*
X261363Y457315D01*
X262083Y457220D01*
X262802Y457315D01*
X263473Y457593D01*
X264048Y458035D01*
X264490Y458610D01*
X264768Y459281D01*
X264862Y460000D01*
X264768Y460719D01*
X264490Y461390D01*
X264048Y461966D01*
X263473Y462407D01*
X262802Y462685D01*
X262083Y462780D01*
D02*
G37*
G36*
X250480Y462575D02*
X247224D01*
Y458925D01*
X250480D01*
Y462575D01*
D02*
G37*
G36*
X293500Y462780D02*
X292781Y462685D01*
X292110Y462407D01*
X291534Y461966D01*
X291093Y461390D01*
X290815Y460719D01*
X290720Y460000D01*
X290815Y459281D01*
X291093Y458610D01*
X291534Y458035D01*
X292110Y457593D01*
X292781Y457315D01*
X293500Y457220D01*
X294219Y457315D01*
X294890Y457593D01*
X295465Y458035D01*
X295907Y458610D01*
X296185Y459281D01*
X296280Y460000D01*
X296185Y460719D01*
X295907Y461390D01*
X295465Y461966D01*
X294890Y462407D01*
X294219Y462685D01*
X293500Y462780D01*
D02*
G37*
G36*
X212598Y466535D02*
X212598Y466535D01*
X211514D01*
X209372Y466196D01*
X207309Y465526D01*
X205376Y464541D01*
X203622Y463266D01*
X202088Y461733D01*
X200813Y459978D01*
X199828Y458045D01*
X199158Y455983D01*
X198819Y453840D01*
Y451671D01*
X199158Y449529D01*
X199828Y447466D01*
X200813Y445534D01*
X202088Y443779D01*
X203622Y442245D01*
X205376Y440971D01*
X207309Y439986D01*
X209372Y439316D01*
X211514Y438976D01*
X212598D01*
X213495Y438998D01*
X215270Y439267D01*
X216996Y439759D01*
X218645Y440466D01*
X220192Y441376D01*
X221611Y442474D01*
X222881Y443743D01*
X223979Y445162D01*
X224888Y446709D01*
X225595Y448359D01*
X226087Y450085D01*
X226357Y451859D01*
X226378Y452756D01*
X226357Y453653D01*
X226087Y455427D01*
X225595Y457153D01*
X224888Y458803D01*
X223979Y460350D01*
X222881Y461769D01*
X221611Y463038D01*
X220192Y464136D01*
X218645Y465046D01*
X216996Y465752D01*
X215270Y466244D01*
X213495Y466514D01*
X212598Y466535D01*
X212598Y466535D01*
D02*
G37*
G36*
X314000Y444007D02*
X313232Y443854D01*
X312581Y443419D01*
X312146Y442768D01*
X311993Y442000D01*
X312146Y441232D01*
X312394Y440860D01*
Y427640D01*
X312146Y427268D01*
X311993Y426500D01*
X312146Y425732D01*
X312537Y425147D01*
X312200Y424780D01*
X311727Y424780D01*
X311727Y424780D01*
X311721Y424780D01*
X308961D01*
Y421130D01*
X312216D01*
Y424282D01*
X312217Y424769D01*
X312581Y425081D01*
X313232Y424646D01*
X314000Y424493D01*
X314768Y424646D01*
X315419Y425081D01*
X315854Y425732D01*
X316007Y426500D01*
X315854Y427268D01*
X315606Y427640D01*
Y440860D01*
X315854Y441232D01*
X316007Y442000D01*
X315854Y442768D01*
X315419Y443419D01*
X314768Y443854D01*
X314000Y444007D01*
D02*
G37*
G36*
X379037Y466535D02*
X376868D01*
X374726Y466196D01*
X372663Y465526D01*
X370731Y464541D01*
X368976Y463266D01*
X367442Y461733D01*
X366167Y459978D01*
X365183Y458045D01*
X364512Y455983D01*
X364173Y453840D01*
Y452756D01*
X364195Y451859D01*
X364464Y450085D01*
X364956Y448359D01*
X365663Y446709D01*
X366572Y445162D01*
X367671Y443743D01*
X368940Y442474D01*
X370359Y441376D01*
X371906Y440466D01*
X373556Y439759D01*
X375282Y439267D01*
X377056Y438998D01*
X377953Y438976D01*
X378850Y438998D01*
X380624Y439267D01*
X382350Y439759D01*
X383999Y440466D01*
X385546Y441376D01*
X386966Y442474D01*
X388235Y443743D01*
X389333Y445162D01*
X390243Y446709D01*
X390949Y448359D01*
X391441Y450085D01*
X391711Y451859D01*
X391732Y452756D01*
X391732D01*
Y453840D01*
X391393Y455983D01*
X390723Y458045D01*
X389738Y459978D01*
X388463Y461733D01*
X386929Y463266D01*
X385175Y464541D01*
X383242Y465526D01*
X381179Y466196D01*
X379037Y466535D01*
D02*
G37*
G36*
X254736Y457925D02*
X251480D01*
Y454276D01*
X254736D01*
Y457925D01*
D02*
G37*
G36*
X250480D02*
X247224D01*
Y454276D01*
X250480D01*
Y457925D01*
D02*
G37*
G36*
X223000Y412007D02*
X222232Y411854D01*
X221581Y411419D01*
X221146Y410768D01*
X220993Y410000D01*
X221146Y409232D01*
X221581Y408581D01*
X222232Y408146D01*
X222401Y408112D01*
X225996Y404517D01*
X225993Y404500D01*
X226146Y403732D01*
X226581Y403081D01*
X227232Y402646D01*
X228000Y402493D01*
X228768Y402646D01*
X229419Y403081D01*
X229854Y403732D01*
X230007Y404500D01*
X229854Y405268D01*
X229419Y405919D01*
X228768Y406354D01*
X228000Y406507D01*
X227983Y406504D01*
X224921Y409566D01*
X225007Y410000D01*
X224854Y410768D01*
X224419Y411419D01*
X223768Y411854D01*
X223000Y412007D01*
D02*
G37*
G36*
X210000Y362183D02*
X208870Y362034D01*
X207816Y361598D01*
X206911Y360904D01*
X206217Y359999D01*
X205781Y358945D01*
X205632Y357815D01*
X205781Y356684D01*
X206217Y355631D01*
X206911Y354726D01*
X207816Y354032D01*
X208870Y353596D01*
X210000Y353447D01*
X211130Y353596D01*
X212184Y354032D01*
X213089Y354726D01*
X213783Y355631D01*
X214219Y356684D01*
X214368Y357815D01*
X214219Y358945D01*
X213783Y359999D01*
X213089Y360904D01*
X212184Y361598D01*
X211130Y362034D01*
X210000Y362183D01*
D02*
G37*
G36*
X363500Y434007D02*
X362732Y433854D01*
X362081Y433419D01*
X361646Y432768D01*
X361493Y432000D01*
X361646Y431232D01*
X361894Y430860D01*
Y398000D01*
X361894Y398000D01*
X362017Y397386D01*
X362365Y396865D01*
X364695Y394534D01*
X364695Y394534D01*
X365216Y394186D01*
X365831Y394064D01*
X366533D01*
X367061Y392790D01*
X367976Y391598D01*
X369168Y390683D01*
X370557Y390108D01*
X371253Y390016D01*
Y389512D01*
X370557Y389420D01*
X369168Y388845D01*
X367976Y387930D01*
X367061Y386737D01*
X366486Y385349D01*
X366289Y383858D01*
X366486Y382368D01*
X367061Y380979D01*
X367976Y379787D01*
X369168Y378872D01*
X370557Y378296D01*
X372047Y378100D01*
X373537Y378296D01*
X374926Y378872D01*
X376119Y379787D01*
X377034Y380979D01*
X377609Y382368D01*
X377650Y382677D01*
X378150Y382644D01*
Y378150D01*
X379093D01*
Y364961D01*
X361221D01*
Y351799D01*
X360394D01*
X359856Y351692D01*
X359400Y351387D01*
X358017Y350004D01*
X358000Y350007D01*
X357232Y349854D01*
X356581Y349419D01*
X356146Y348768D01*
X355993Y348000D01*
X356146Y347232D01*
X356581Y346581D01*
X357232Y346146D01*
X358000Y345993D01*
X358768Y346146D01*
X359419Y346581D01*
X359854Y347232D01*
X360007Y348000D01*
X360004Y348017D01*
X360720Y348734D01*
X361221Y348527D01*
Y335827D01*
X390354D01*
Y364961D01*
X388623D01*
Y378150D01*
X389567D01*
Y389567D01*
X385073D01*
X385040Y390067D01*
X385349Y390108D01*
X386737Y390683D01*
X387930Y391598D01*
X388845Y392790D01*
X389420Y394179D01*
X389616Y395669D01*
X389420Y397160D01*
X388845Y398548D01*
X387930Y399741D01*
X386737Y400656D01*
X385349Y401231D01*
X384652Y401323D01*
Y401827D01*
X385349Y401919D01*
X386737Y402494D01*
X387930Y403409D01*
X388845Y404601D01*
X389420Y405990D01*
X389616Y407480D01*
X389420Y408971D01*
X388845Y410359D01*
X387930Y411552D01*
X386737Y412467D01*
X385349Y413042D01*
X384652Y413134D01*
Y413638D01*
X385349Y413730D01*
X386737Y414305D01*
X387930Y415220D01*
X388845Y416412D01*
X389420Y417801D01*
X389616Y419291D01*
X389420Y420782D01*
X388845Y422170D01*
X387930Y423363D01*
X386737Y424278D01*
X385349Y424853D01*
X383858Y425049D01*
X382368Y424853D01*
X380979Y424278D01*
X379787Y423363D01*
X378872Y422170D01*
X378296Y420782D01*
X378205Y420086D01*
X377701D01*
X377609Y420782D01*
X377034Y422170D01*
X376119Y423363D01*
X374926Y424278D01*
X373537Y424853D01*
X372047Y425049D01*
X370557Y424853D01*
X369168Y424278D01*
X367976Y423363D01*
X367061Y422170D01*
X366486Y420782D01*
X366289Y419291D01*
X366486Y417801D01*
X367061Y416412D01*
X367976Y415220D01*
X369168Y414305D01*
X370557Y413730D01*
X371253Y413638D01*
Y413134D01*
X370557Y413042D01*
X369168Y412467D01*
X367976Y411552D01*
X367061Y410359D01*
X366486Y408971D01*
X366289Y407480D01*
X366486Y405990D01*
X367061Y404601D01*
X367976Y403409D01*
X369168Y402494D01*
X370557Y401919D01*
X371253Y401827D01*
Y401323D01*
X370557Y401231D01*
X369168Y400656D01*
X367976Y399741D01*
X367061Y398548D01*
X366729Y397748D01*
X366140Y397631D01*
X365106Y398665D01*
Y430860D01*
X365354Y431232D01*
X365507Y432000D01*
X365354Y432768D01*
X364919Y433419D01*
X364268Y433854D01*
X363500Y434007D01*
D02*
G37*
G36*
X210000Y372026D02*
X208870Y371877D01*
X207816Y371440D01*
X206911Y370746D01*
X206217Y369842D01*
X205781Y368788D01*
X205632Y367657D01*
X205781Y366527D01*
X206217Y365473D01*
X206911Y364569D01*
X207816Y363875D01*
X208870Y363438D01*
X210000Y363289D01*
X211130Y363438D01*
X212184Y363875D01*
X213089Y364569D01*
X213783Y365473D01*
X214219Y366527D01*
X214368Y367657D01*
X214219Y368788D01*
X213783Y369842D01*
X213089Y370746D01*
X212184Y371440D01*
X211130Y371877D01*
X210000Y372026D01*
D02*
G37*
G36*
X209500Y377000D02*
X205483D01*
X205574Y376314D01*
X206031Y375209D01*
X206760Y374260D01*
X207709Y373531D01*
X208814Y373074D01*
X209500Y372983D01*
Y377000D01*
D02*
G37*
G36*
X323500Y371507D02*
X322732Y371354D01*
X322081Y370919D01*
X321646Y370268D01*
X321493Y369500D01*
X321496Y369483D01*
X319507Y367493D01*
X319202Y367038D01*
X319095Y366500D01*
Y354082D01*
X317418Y352405D01*
X316500D01*
X315962Y352298D01*
X315507Y351993D01*
X311401Y347888D01*
X311232Y347854D01*
X310581Y347419D01*
X310500Y347298D01*
X310000D01*
X309919Y347419D01*
X309268Y347854D01*
X308500Y348007D01*
X307732Y347854D01*
X307081Y347419D01*
X307071Y347405D01*
X304263D01*
X303919Y347919D01*
X303268Y348354D01*
X302500Y348507D01*
X301732Y348354D01*
X301081Y347919D01*
X300646Y347268D01*
X300493Y346500D01*
X300646Y345732D01*
X301081Y345081D01*
X301732Y344646D01*
X302500Y344493D01*
X303013Y344595D01*
X307071D01*
X307081Y344581D01*
X307732Y344146D01*
X308377Y344018D01*
X309947Y342447D01*
X310402Y342143D01*
X310940Y342036D01*
X314341D01*
X314879Y342143D01*
X315334Y342447D01*
X317101Y344214D01*
X317118Y344211D01*
X317886Y344364D01*
X318537Y344799D01*
X318972Y345450D01*
X319125Y346218D01*
X318972Y346986D01*
X318537Y347637D01*
X317886Y348072D01*
X317118Y348225D01*
X316350Y348072D01*
X316098Y347904D01*
X315779Y348292D01*
X317082Y349595D01*
X318000D01*
X318538Y349702D01*
X318993Y350007D01*
X321493Y352507D01*
X321595Y352659D01*
X322095Y352507D01*
Y344500D01*
X322202Y343962D01*
X322497Y343521D01*
X322493Y343500D01*
X322646Y342732D01*
X323081Y342081D01*
X323732Y341646D01*
X323873Y341108D01*
X323646Y340768D01*
X323493Y340000D01*
X323646Y339232D01*
X324081Y338581D01*
X324095Y338571D01*
Y334426D01*
X323732Y334354D01*
X323081Y333919D01*
X322646Y333268D01*
X322493Y332500D01*
X322646Y331732D01*
X323081Y331081D01*
X323732Y330646D01*
X324500Y330493D01*
X325268Y330646D01*
X325919Y331081D01*
X326354Y331732D01*
X326507Y332500D01*
X326503Y332521D01*
X326798Y332962D01*
X326905Y333500D01*
Y338571D01*
X326919Y338581D01*
X327354Y339232D01*
X327507Y340000D01*
X327354Y340768D01*
X326919Y341419D01*
X326268Y341854D01*
X326127Y342392D01*
X326354Y342732D01*
X326507Y343500D01*
X326354Y344268D01*
X325919Y344919D01*
X325268Y345354D01*
X324905Y345427D01*
Y355571D01*
X324919Y355581D01*
X325354Y356232D01*
X325507Y357000D01*
X325354Y357768D01*
X324919Y358419D01*
X324268Y358854D01*
X323500Y359007D01*
X322732Y358854D01*
X322405Y358636D01*
X321905Y358903D01*
Y365918D01*
X323483Y367496D01*
X323500Y367493D01*
X324268Y367646D01*
X324919Y368081D01*
X325354Y368732D01*
X325507Y369500D01*
X325354Y370268D01*
X324919Y370919D01*
X324268Y371354D01*
X323500Y371507D01*
D02*
G37*
G36*
X226000Y319507D02*
X225232Y319354D01*
X224581Y318919D01*
X224146Y318268D01*
X223993Y317500D01*
X223996Y317483D01*
X218918Y312405D01*
X209429D01*
X209419Y312419D01*
X208768Y312854D01*
X208000Y313007D01*
X207232Y312854D01*
X206581Y312419D01*
X206146Y311768D01*
X205993Y311000D01*
X206146Y310232D01*
X206581Y309581D01*
X207232Y309146D01*
X208000Y308993D01*
X208768Y309146D01*
X209419Y309581D01*
X209429Y309595D01*
X219500D01*
X220038Y309702D01*
X220493Y310007D01*
X225983Y315496D01*
X226000Y315493D01*
X226768Y315646D01*
X227419Y316081D01*
X227854Y316732D01*
X228007Y317500D01*
X227854Y318268D01*
X227419Y318919D01*
X226768Y319354D01*
X226000Y319507D01*
D02*
G37*
G36*
X334000Y305007D02*
X333232Y304854D01*
X332581Y304419D01*
X332146Y303768D01*
X332129Y303683D01*
X331486Y303041D01*
X330962Y303224D01*
X330854Y303768D01*
X330419Y304419D01*
X329768Y304854D01*
X329000Y305007D01*
X328232Y304854D01*
X327581Y304419D01*
X327146Y303768D01*
X326993Y303000D01*
X326996Y302983D01*
X325918Y301905D01*
X325209D01*
Y302862D01*
X320091D01*
Y298138D01*
X325209D01*
Y299095D01*
X326500D01*
X327038Y299202D01*
X327493Y299506D01*
X327700Y299713D01*
X327823Y299700D01*
X328224Y299153D01*
X328194Y299000D01*
Y270248D01*
X326817Y268871D01*
X326732Y268854D01*
X326081Y268419D01*
X325646Y267768D01*
X325493Y267000D01*
X325646Y266232D01*
X326081Y265581D01*
X326732Y265146D01*
X327500Y264993D01*
X328268Y265146D01*
X328919Y265581D01*
X329354Y266232D01*
X329371Y266317D01*
X331277Y268223D01*
X331669Y268809D01*
X331806Y269500D01*
Y298252D01*
X334683Y301129D01*
X334768Y301146D01*
X335419Y301581D01*
X335854Y302232D01*
X336007Y303000D01*
X335854Y303768D01*
X335419Y304419D01*
X334768Y304854D01*
X334000Y305007D01*
D02*
G37*
G36*
X287500Y347507D02*
X286732Y347354D01*
X286081Y346919D01*
X285646Y346268D01*
X285493Y345500D01*
X285646Y344732D01*
X285694Y344660D01*
Y335340D01*
X285646Y335268D01*
X285493Y334500D01*
X285646Y333732D01*
X286081Y333081D01*
X286732Y332646D01*
X287500Y332493D01*
X288268Y332646D01*
X288919Y333081D01*
X289354Y333732D01*
X289507Y334500D01*
X289354Y335268D01*
X289306Y335340D01*
Y344660D01*
X289354Y344732D01*
X289507Y345500D01*
X289354Y346268D01*
X288919Y346919D01*
X288268Y347354D01*
X287500Y347507D01*
D02*
G37*
G36*
X341500Y358507D02*
X340732Y358354D01*
X340081Y357919D01*
X339646Y357268D01*
X339558Y356829D01*
X338365Y355635D01*
X338017Y355115D01*
X337894Y354500D01*
X337894Y354500D01*
Y350140D01*
X337646Y349768D01*
X337493Y349000D01*
X337646Y348232D01*
X338081Y347581D01*
X338732Y347146D01*
X339500Y346993D01*
X339873Y347067D01*
X340120Y346606D01*
X338401Y344888D01*
X338232Y344854D01*
X337581Y344419D01*
X337146Y343768D01*
X336993Y343000D01*
X337146Y342232D01*
X337581Y341581D01*
X338232Y341146D01*
X339000Y340993D01*
X339768Y341146D01*
X340419Y341581D01*
X340854Y342232D01*
X341007Y343000D01*
X340921Y343434D01*
X342445Y344958D01*
X342487Y344937D01*
X342487Y344937D01*
X342913Y344719D01*
X342913Y344449D01*
Y340953D01*
X342472Y340718D01*
X342268Y340854D01*
X341500Y341007D01*
X340732Y340854D01*
X340081Y340419D01*
X339646Y339768D01*
X339558Y339329D01*
X336365Y336135D01*
X336017Y335614D01*
X335894Y335000D01*
X335894Y335000D01*
Y330140D01*
X335646Y329768D01*
X335493Y329000D01*
X335646Y328232D01*
X336081Y327581D01*
X336732Y327146D01*
X337500Y326993D01*
X338268Y327146D01*
X338919Y327581D01*
X339354Y328232D01*
X339507Y329000D01*
X339354Y329768D01*
X339106Y330140D01*
Y334335D01*
X341829Y337058D01*
X342268Y337146D01*
X342768Y337479D01*
X342913Y337402D01*
Y337402D01*
X354331D01*
Y344882D01*
X350606D01*
Y347360D01*
X350854Y347732D01*
X351007Y348500D01*
X350854Y349268D01*
X350419Y349919D01*
X349768Y350354D01*
X349000Y350507D01*
X348232Y350354D01*
X347581Y349919D01*
X347467Y349749D01*
X346996Y349944D01*
X347007Y350000D01*
X346854Y350768D01*
X346419Y351419D01*
X345768Y351854D01*
X345000Y352007D01*
X344232Y351854D01*
X343581Y351419D01*
X343146Y350768D01*
X342993Y350000D01*
X343079Y349566D01*
X341894Y348380D01*
X341433Y348627D01*
X341507Y349000D01*
X341354Y349768D01*
X341106Y350140D01*
Y353835D01*
X341829Y354558D01*
X342268Y354646D01*
X342919Y355081D01*
X343354Y355732D01*
X343507Y356500D01*
X343354Y357268D01*
X342919Y357919D01*
X342268Y358354D01*
X341500Y358507D01*
D02*
G37*
G36*
X313000Y339507D02*
X312232Y339354D01*
X311581Y338919D01*
X311571Y338905D01*
X295429D01*
X295419Y338919D01*
X294768Y339354D01*
X294000Y339507D01*
X293232Y339354D01*
X292581Y338919D01*
X292146Y338268D01*
X291993Y337500D01*
X292146Y336732D01*
X292581Y336081D01*
X293232Y335646D01*
X294000Y335493D01*
X294768Y335646D01*
X295419Y336081D01*
X295429Y336095D01*
X311571D01*
X311581Y336081D01*
X312232Y335646D01*
X313000Y335493D01*
X313768Y335646D01*
X314419Y336081D01*
X314854Y336732D01*
X315007Y337500D01*
X314854Y338268D01*
X314419Y338919D01*
X313768Y339354D01*
X313000Y339507D01*
D02*
G37*
G36*
X214517Y377000D02*
X210500D01*
Y372983D01*
X211186Y373074D01*
X212291Y373531D01*
X213240Y374260D01*
X213969Y375209D01*
X214426Y376314D01*
X214517Y377000D01*
D02*
G37*
G36*
X235500Y398017D02*
X234814Y397926D01*
X233709Y397469D01*
X232760Y396740D01*
X232031Y395791D01*
X231574Y394686D01*
X231483Y394000D01*
X235500D01*
Y398017D01*
D02*
G37*
G36*
X240517Y393000D02*
X236500D01*
Y388983D01*
X237186Y389074D01*
X238291Y389531D01*
X239240Y390260D01*
X239969Y391209D01*
X240426Y392314D01*
X240517Y393000D01*
D02*
G37*
G36*
X236000Y407868D02*
X234870Y407719D01*
X233816Y407283D01*
X232911Y406589D01*
X232217Y405684D01*
X231781Y404631D01*
X231632Y403500D01*
X231781Y402369D01*
X232217Y401316D01*
X232911Y400411D01*
X233816Y399717D01*
X234870Y399281D01*
X236000Y399132D01*
X237130Y399281D01*
X238184Y399717D01*
X239089Y400411D01*
X239783Y401316D01*
X240219Y402369D01*
X240368Y403500D01*
X240219Y404631D01*
X239783Y405684D01*
X239089Y406589D01*
X238184Y407283D01*
X237130Y407719D01*
X236000Y407868D01*
D02*
G37*
G36*
X236500Y398017D02*
Y394000D01*
X240517D01*
X240426Y394686D01*
X239969Y395791D01*
X239240Y396740D01*
X238291Y397469D01*
X237186Y397926D01*
X236500Y398017D01*
D02*
G37*
G36*
X235500Y393000D02*
X231483D01*
X231574Y392314D01*
X232031Y391209D01*
X232760Y390260D01*
X233709Y389531D01*
X234814Y389074D01*
X235500Y388983D01*
Y393000D01*
D02*
G37*
G36*
X210500Y382017D02*
Y378000D01*
X214517D01*
X214426Y378686D01*
X213969Y379791D01*
X213240Y380740D01*
X212291Y381469D01*
X211186Y381926D01*
X210500Y382017D01*
D02*
G37*
G36*
X209500D02*
X208814Y381926D01*
X207709Y381469D01*
X206760Y380740D01*
X206031Y379791D01*
X205574Y378686D01*
X205483Y378000D01*
X209500D01*
Y382017D01*
D02*
G37*
G36*
X236000Y387868D02*
X234870Y387719D01*
X233816Y387283D01*
X232911Y386589D01*
X232217Y385684D01*
X231781Y384630D01*
X231632Y383500D01*
X231781Y382369D01*
X232217Y381316D01*
X232911Y380411D01*
X233816Y379717D01*
X234870Y379281D01*
X236000Y379132D01*
X237130Y379281D01*
X238184Y379717D01*
X239089Y380411D01*
X239783Y381316D01*
X240219Y382369D01*
X240368Y383500D01*
X240219Y384630D01*
X239783Y385684D01*
X239089Y386589D01*
X238184Y387283D01*
X237130Y387719D01*
X236000Y387868D01*
D02*
G37*
G36*
X214331Y391681D02*
X205669D01*
Y383020D01*
X214331D01*
Y391681D01*
D02*
G37*
%LPD*%
G36*
X279327Y414724D02*
X279734Y414724D01*
X280087Y414371D01*
Y403598D01*
X280075Y403589D01*
X279575Y403857D01*
Y404850D01*
X277500D01*
Y402579D01*
X278885D01*
X279092Y402079D01*
X278418Y401405D01*
X262000D01*
X261462Y401298D01*
X261007Y400993D01*
X252335Y392322D01*
X251873Y392514D01*
Y393134D01*
X255930Y397191D01*
X256235Y397647D01*
X256342Y398185D01*
Y403855D01*
X259983Y407496D01*
X260000Y407493D01*
X260768Y407646D01*
X261419Y408081D01*
X261854Y408732D01*
X261866Y408790D01*
X262443Y409130D01*
X262619Y409095D01*
X270500D01*
X271038Y409202D01*
X271493Y409507D01*
X273824Y411837D01*
X274129Y412293D01*
X274138Y412339D01*
X274638Y412289D01*
Y409091D01*
X279362D01*
Y414209D01*
X278950D01*
X278743Y414709D01*
X278759Y414724D01*
X279327Y414724D01*
D02*
G37*
%LPC*%
G36*
X276500Y404850D02*
X274425D01*
Y402579D01*
X276500D01*
Y404850D01*
D02*
G37*
G36*
Y408122D02*
X274425D01*
Y405850D01*
X276500D01*
Y408122D01*
D02*
G37*
G36*
X279575D02*
X277500D01*
Y405850D01*
X279575D01*
Y408122D01*
D02*
G37*
%LPD*%
D10*
X302350Y292500D02*
D03*
X308650Y292500D02*
D03*
Y285000D02*
D03*
X302350Y285000D02*
D03*
X308650Y300500D02*
D03*
X302350Y300500D02*
D03*
X316350D02*
D03*
X322650Y300500D02*
D03*
X322500Y292500D02*
D03*
X316201Y292500D02*
D03*
X315850Y285000D02*
D03*
X322150Y285000D02*
D03*
X327150Y229500D02*
D03*
X320850Y229500D02*
D03*
X321350Y222000D02*
D03*
X327650Y222000D02*
D03*
X295150Y209500D02*
D03*
X288850Y209500D02*
D03*
D11*
X271500Y226500D02*
D03*
X271500Y220201D02*
D03*
X277000Y411650D02*
D03*
X277000Y405350D02*
D03*
X332500Y260150D02*
D03*
X332500Y253850D02*
D03*
X310000Y229150D02*
D03*
X310000Y222850D02*
D03*
D17*
X305000Y238496D02*
D03*
X300000D02*
D03*
X295000D02*
D03*
X290000D02*
D03*
X325000D02*
D03*
X320000D02*
D03*
X315000D02*
D03*
X310000D02*
D03*
X285000D02*
D03*
X280000D02*
D03*
X290000Y275504D02*
D03*
X295000D02*
D03*
X300000D02*
D03*
X305000D02*
D03*
X280000D02*
D03*
X285000D02*
D03*
X310000D02*
D03*
X315000D02*
D03*
X320000D02*
D03*
X325000D02*
D03*
D20*
X293500Y460000D02*
D03*
X262083D02*
D03*
D21*
X280716Y226331D02*
D03*
X295284Y217669D02*
D03*
Y226331D02*
D03*
X280716Y217669D02*
D03*
D32*
X260500Y312000D02*
X265000D01*
X237500Y335000D02*
X260500Y312000D01*
X237500Y335000D02*
Y338000D01*
X235500Y340000D02*
X237500Y338000D01*
X244500Y332000D02*
X247000D01*
X249972Y325409D02*
Y335028D01*
X234000Y335000D02*
Y336500D01*
X278784Y397000D02*
X285534Y403750D01*
X289250D02*
X291500Y406000D01*
X285534Y403750D02*
X289250D01*
X262500Y397000D02*
X278784D01*
X227000Y365000D02*
X234500D01*
X237059Y365559D02*
X240500Y369000D01*
X237059Y353059D02*
Y365559D01*
X236500Y352500D02*
X237059Y353059D01*
X221500Y368500D02*
X232000D01*
X223000Y409500D02*
Y410000D01*
Y409500D02*
X228000Y404500D01*
X222500Y373500D02*
X236000D01*
X222000Y374000D02*
X222500Y373500D01*
X217500Y372500D02*
Y379500D01*
Y372500D02*
X221500Y368500D01*
X219500Y349382D02*
X219677Y349559D01*
X218441D02*
X219677D01*
X216500Y347000D02*
X230500D01*
X219677Y349559D02*
X220059Y349941D01*
X236000Y418000D02*
Y421000D01*
Y413500D02*
Y418000D01*
X228500Y425500D02*
X236000Y418000D01*
X242500Y427500D02*
X254500D01*
X236000Y421000D02*
X242500Y427500D01*
X254500D02*
X256500Y425500D01*
X274500D01*
X277161Y422839D01*
Y418268D02*
Y422839D01*
X212000Y300000D02*
X242484D01*
X246484Y304000D01*
X332000Y384500D02*
Y392500D01*
X223750Y361750D02*
X227000Y365000D01*
X242500Y350000D02*
Y365500D01*
X220250Y361750D02*
X223750D01*
X218000Y364000D02*
X220250Y361750D01*
X320500Y353500D02*
Y366500D01*
X323500Y369500D01*
X318000Y351000D02*
X320500Y353500D01*
X316500Y351000D02*
X318000D01*
X312000Y346500D02*
X316500Y351000D01*
X312000Y346000D02*
Y346500D01*
X314341Y343441D02*
X317118Y346218D01*
X310940Y343441D02*
X314341D01*
X308500Y345881D02*
X310940Y343441D01*
X308500Y345881D02*
Y346000D01*
X303000D02*
X308500D01*
X294000Y337500D02*
X313000D01*
X302500Y346500D02*
X303000Y346000D01*
X339000Y343000D02*
Y343500D01*
X345000Y349500D01*
Y350000D01*
X307500Y403500D02*
X334000D01*
X315000Y406500D02*
X326500D01*
X322650Y300500D02*
X326500D01*
X329000Y303000D01*
X342500Y269500D02*
X344000D01*
X344500Y269000D01*
X342500Y266000D02*
X343000Y265500D01*
X342500Y262500D02*
Y263000D01*
X343000Y265500D02*
X358000D01*
X344500Y269000D02*
X358000D01*
X343500Y262000D02*
X358000D01*
X207000Y305000D02*
X212000Y300000D01*
X219500Y311000D02*
X226000Y317500D01*
X208000Y311000D02*
X219500D01*
X251500Y273500D02*
Y279000D01*
X277000Y411650D02*
Y418106D01*
X277161Y418268D01*
X279000Y400000D02*
X281492Y402492D01*
Y418268D01*
X270500Y410500D02*
X272831Y412831D01*
Y418268D01*
X264169Y413669D02*
Y418268D01*
X286000Y408500D02*
Y418091D01*
X285823Y418268D02*
X286000Y418091D01*
X325500Y333500D02*
Y340000D01*
X324500Y332500D02*
X325500Y333500D01*
X323500Y344500D02*
X324500Y343500D01*
X323500Y344500D02*
Y357000D01*
X358000Y348000D02*
X360394Y350394D01*
X375787D01*
X262000Y400000D02*
X279000D01*
X259500Y378000D02*
Y394000D01*
X262500Y397000D01*
X332000Y384500D02*
X333000Y383500D01*
X304000Y219000D02*
Y226000D01*
X307150Y229150D01*
X310000D01*
X253941Y329559D02*
X254500Y329000D01*
X251941Y327059D02*
X253500Y325500D01*
X249972Y325409D02*
X253881Y321500D01*
X256500D01*
X234000Y352500D02*
X236500D01*
X287500Y247000D02*
X289500Y245000D01*
Y238996D02*
Y245000D01*
Y238996D02*
X290000Y238496D01*
X270000Y307500D02*
X275000D01*
X276559Y305941D01*
Y303440D02*
Y305941D01*
X275060Y301941D02*
X276559Y303440D01*
X270000Y252000D02*
X275000Y247000D01*
X287500D01*
X271969Y252815D02*
X275815Y248969D01*
X291531D02*
X294500Y246000D01*
Y238996D02*
Y246000D01*
Y238996D02*
X295000Y238496D01*
X275815Y248969D02*
X291531D01*
X263500Y252000D02*
X267500Y248000D01*
Y234000D02*
Y248000D01*
X265000Y231500D02*
X267500Y234000D01*
X303000Y213000D02*
X305500D01*
X310000Y217500D01*
X310000Y217500D02*
X310000Y217500D01*
X310000Y217500D02*
Y222850D01*
X254500Y269000D02*
X260500D01*
X270500Y310500D02*
X275500D01*
X278528Y307472D01*
Y302625D02*
Y307472D01*
X274500Y298597D02*
X278528Y302625D01*
X271969Y252815D02*
Y298909D01*
X275000Y301941D02*
X275060D01*
X271969Y298909D02*
X275000Y301941D01*
X274500Y270000D02*
Y298597D01*
Y270000D02*
X276500Y268000D01*
X292500D01*
X295000Y270500D01*
Y275504D01*
X280000D02*
Y297000D01*
X290000Y275504D02*
Y281000D01*
X285500Y285500D02*
X290000Y281000D01*
X244000Y349000D02*
X245500Y347500D01*
X243500Y349000D02*
X244000D01*
X242500Y350000D02*
X243500Y349000D01*
X248500Y336500D02*
X249972Y335028D01*
X248500Y336500D02*
Y348000D01*
X246500Y397500D02*
X250000Y401000D01*
X236500Y352500D02*
X243500Y345500D01*
X250468Y337531D02*
X251941Y336059D01*
X250468Y337531D02*
Y348815D01*
X248468Y391531D02*
X248500Y391500D01*
X248468Y391531D02*
Y394500D01*
X252969Y399000D01*
X251941Y327059D02*
Y336059D01*
X252437Y338347D02*
X253941Y336843D01*
X252437Y338347D02*
Y349631D01*
X250468Y393716D02*
X254937Y398185D01*
Y404437D01*
X253941Y329559D02*
Y336843D01*
X254405Y339162D02*
X256500Y337068D01*
X254405Y339162D02*
Y350446D01*
X264000Y413500D02*
X264169Y413669D01*
X252969Y399000D02*
Y407469D01*
X254937Y404437D02*
X260000Y409500D01*
X252969Y407469D02*
X257559Y412059D01*
X261060D01*
X262619Y410500D01*
X270500D01*
X256500Y332500D02*
Y337068D01*
X252437Y390437D02*
X262000Y400000D01*
X259500Y378000D02*
X262500Y375000D01*
X257500Y366000D02*
X258000D01*
X285000Y271500D02*
Y275504D01*
X283500Y270000D02*
X285000Y271500D01*
X278000Y270000D02*
X283500D01*
X277000Y271000D02*
X278000Y270000D01*
X277000Y271000D02*
Y297000D01*
X280000D02*
X282500Y299500D01*
X278250Y298250D02*
Y299563D01*
X280496Y301809D01*
Y306996D01*
X280500Y307000D01*
X277000Y297000D02*
X278250Y298250D01*
X285500Y285500D02*
Y316500D01*
X277500Y324500D02*
X285500Y316500D01*
X277500Y324500D02*
Y325000D01*
X276657Y318059D02*
X277060D01*
X277472Y320028D02*
X277875D01*
X282500Y315403D01*
X277060Y318059D02*
X280500Y314619D01*
Y307000D02*
Y314619D01*
X282500Y299500D02*
Y315403D01*
X276000Y315500D02*
Y315932D01*
X263500Y334000D02*
X277472Y320028D01*
X263500Y334000D02*
Y360500D01*
X258000Y366000D02*
X263500Y360500D01*
X261531Y333185D02*
X276657Y318059D01*
X259563Y332369D02*
Y349437D01*
Y332369D02*
X276000Y315932D01*
X256500Y362000D02*
X261531Y356968D01*
X255500Y362000D02*
X256500D01*
X261531Y333185D02*
Y356968D01*
X245500Y368000D02*
X246500Y369000D01*
Y397500D01*
X247468Y367185D02*
X248468Y368185D01*
Y369468D01*
X248500Y369500D01*
Y391500D01*
X249437Y366369D02*
X250437Y367369D01*
Y368468D01*
X250468Y368500D01*
Y393716D01*
X251406Y365554D02*
X252406Y366554D01*
Y366968D01*
X252437Y367000D01*
Y390437D01*
X245500Y351000D02*
X248500Y348000D01*
X247468Y351815D02*
X250468Y348815D01*
X249437Y352631D02*
X252437Y349631D01*
X251406Y353446D02*
X254405Y350446D01*
X245500Y351000D02*
Y368000D01*
X247468Y351815D02*
Y367185D01*
X249437Y352631D02*
Y366369D01*
X251406Y353446D02*
Y365554D01*
X254000Y355000D02*
Y357000D01*
Y355000D02*
X259563Y349437D01*
X302350Y305850D02*
X302500Y306000D01*
X302350Y300500D02*
Y305850D01*
X265500Y303000D02*
X270000Y307500D01*
X263500Y303000D02*
X265500D01*
X274000Y304000D02*
Y304500D01*
X270000Y252000D02*
Y300000D01*
X274000Y304000D01*
X245500Y338500D02*
Y347500D01*
X243500Y341000D02*
Y345500D01*
X233559Y349941D02*
X240500Y343000D01*
X240250Y337750D02*
X243500Y341000D01*
X239750Y336750D02*
X244500Y332000D01*
X234000Y340000D02*
X235500D01*
X267000Y315000D02*
X267559Y314441D01*
Y310940D02*
Y314441D01*
X265619Y309000D02*
X267559Y310940D01*
X260000Y309000D02*
X265619D01*
X234000Y335000D02*
X260000Y309000D01*
X220059Y349941D02*
X233559D01*
X262000Y299500D02*
X263500Y298000D01*
Y252000D02*
Y298000D01*
X342500Y263000D02*
X343500Y262000D01*
D33*
X301159Y400500D02*
X338000D01*
X278500Y386500D02*
X284250Y392250D01*
X292909D01*
X301159Y400500D01*
X283500Y386500D02*
X286750Y389750D01*
X293750D01*
X302000Y398000D01*
X340000D01*
X303256Y395256D02*
X343244D01*
X294500Y386500D02*
X303256Y395256D01*
X288500Y386500D02*
X294500D01*
X300000Y387000D02*
X308000D01*
X296000Y383000D02*
X300000Y387000D01*
X276000Y383000D02*
X296000D01*
X365831Y395669D02*
X372047D01*
X363500Y398000D02*
X365831Y395669D01*
X363500Y398000D02*
Y432000D01*
X343244Y395256D02*
X343500Y395000D01*
X246500Y280000D02*
X249500Y283000D01*
X246500Y270000D02*
Y280000D01*
X327150Y229500D02*
Y232925D01*
Y236350D01*
X306000Y263500D02*
X315000D01*
X300000Y269500D02*
X306000Y263500D01*
X300000Y269500D02*
Y275504D01*
X314000Y426500D02*
Y442000D01*
X337500Y329000D02*
Y335000D01*
X341500Y339000D01*
X339500Y349000D02*
Y354500D01*
X341500Y356500D01*
X271000Y378000D02*
X276000Y383000D01*
X271000Y375000D02*
Y378000D01*
X342500Y259000D02*
X367921D01*
X369421Y260500D01*
X315000Y256500D02*
Y263500D01*
Y238496D02*
Y256500D01*
X323500D01*
X327150Y260150D01*
X332500D01*
X315000Y263500D02*
X319500Y268000D01*
X325000Y270500D02*
Y275504D01*
X319500Y268000D02*
X322500D01*
X325000Y270500D01*
X320500Y222850D02*
X321350Y222000D01*
X310000Y222850D02*
X320500D01*
X310000Y229150D02*
Y238496D01*
X280000Y227047D02*
X280547Y226500D01*
X280716Y226331D01*
X271500Y226500D02*
X280547D01*
X295150Y209500D02*
X295284Y209634D01*
Y217669D01*
X280000Y227047D02*
Y238496D01*
X291331Y217669D02*
X295284D01*
X288500Y220500D02*
X291331Y217669D01*
X288500Y220500D02*
Y229000D01*
X285000Y232500D02*
X288500Y229000D01*
X285000Y232500D02*
Y238496D01*
X325004D02*
X327150Y236350D01*
X325000Y238496D02*
X325004D01*
X316201Y300350D02*
X316350Y300500D01*
X316201Y292500D02*
Y300350D01*
X322150Y292150D02*
X322500Y292500D01*
X322150Y285000D02*
Y292150D01*
X320000Y282850D02*
X322150Y285000D01*
X320000Y275504D02*
Y282850D01*
X315000Y284150D02*
X315850Y285000D01*
X315000Y275504D02*
Y284150D01*
X308650Y292500D02*
Y300500D01*
X302350Y285000D02*
Y292500D01*
X305000Y275504D02*
Y282350D01*
X302350Y285000D02*
X305000Y282350D01*
X308650Y285000D02*
X310000Y283650D01*
Y275504D02*
Y283650D01*
X348622Y341142D02*
X349000Y341520D01*
Y348500D01*
X340000Y398000D02*
X341000Y399000D01*
X344250D01*
X338000Y400500D02*
X341000Y403500D01*
X343500D01*
X369421Y260500D02*
X372047Y257874D01*
D35*
X223159Y342500D02*
X258000Y307659D01*
X215500Y342500D02*
X223159D01*
X258000Y293000D02*
Y307659D01*
X205500Y352500D02*
X215500Y342500D01*
X330000Y299000D02*
X334000Y303000D01*
X330000Y269500D02*
Y299000D01*
X327500Y267000D02*
X330000Y269500D01*
X287500Y334500D02*
Y345500D01*
X288500Y299000D02*
Y309000D01*
X258000Y293000D02*
X261000Y290000D01*
Y275500D02*
Y290000D01*
X258000Y272500D02*
X261000Y275500D01*
D36*
X383858Y358465D02*
Y383858D01*
X375787Y350394D02*
X383858Y358465D01*
D38*
X236000Y393500D02*
D03*
Y373500D02*
D03*
Y383500D02*
D03*
Y403500D02*
D03*
X210000Y377500D02*
D03*
Y367657D02*
D03*
Y357815D02*
D03*
D39*
X236000Y413500D02*
D03*
X210000Y387350D02*
D03*
D40*
X210874Y242626D02*
D03*
Y258374D02*
D03*
D41*
X212598Y452756D02*
D03*
X377953D02*
D03*
Y212598D02*
D03*
X212598D02*
D03*
D42*
X383858Y246063D02*
D03*
Y383858D02*
D03*
D43*
X372047Y246063D02*
D03*
X383858Y281496D02*
D03*
Y269685D02*
D03*
Y257874D02*
D03*
X372047Y383858D02*
D03*
X383858Y419291D02*
D03*
Y407480D02*
D03*
Y395669D02*
D03*
D44*
X372047Y281496D02*
D03*
Y257874D02*
D03*
Y419291D02*
D03*
Y395669D02*
D03*
D45*
Y269685D02*
D03*
Y407480D02*
D03*
D46*
X247000Y332000D02*
D03*
X234000Y336500D02*
D03*
X315000Y228500D02*
D03*
X334500Y232000D02*
D03*
X285000Y253000D02*
D03*
X283500Y261000D02*
D03*
X234500Y365000D02*
D03*
X232000Y368500D02*
D03*
X363500Y432000D02*
D03*
X223000Y410000D02*
D03*
X228000Y404500D02*
D03*
X222000Y374000D02*
D03*
X217500Y379500D02*
D03*
X218441Y349559D02*
D03*
X216500Y347000D02*
D03*
X230500D02*
D03*
X228500Y425500D02*
D03*
X354000Y352500D02*
D03*
X324500Y309500D02*
D03*
X331500Y319500D02*
D03*
X231500Y316500D02*
D03*
X207500Y421500D02*
D03*
X200500Y396000D02*
D03*
X248000Y408500D02*
D03*
X248500Y413000D02*
D03*
X348000Y416000D02*
D03*
X337000Y459500D02*
D03*
X233000Y450000D02*
D03*
X201000Y438500D02*
D03*
X244500Y453000D02*
D03*
X273500Y462500D02*
D03*
X315000Y458000D02*
D03*
X323500Y455500D02*
D03*
X334000Y448500D02*
D03*
X350500Y457000D02*
D03*
X361500Y445000D02*
D03*
X389000Y432500D02*
D03*
X356500Y424500D02*
D03*
X346000Y429500D02*
D03*
X379000Y314000D02*
D03*
X390500Y308000D02*
D03*
X387500Y290000D02*
D03*
X391500Y275500D02*
D03*
Y264000D02*
D03*
X370000Y238000D02*
D03*
X389500Y236000D02*
D03*
X385000Y230500D02*
D03*
X365500Y227000D02*
D03*
X343500Y211500D02*
D03*
X327000Y202000D02*
D03*
X312500Y203500D02*
D03*
X263500D02*
D03*
X264000Y214000D02*
D03*
X251500Y230000D02*
D03*
X239000Y217000D02*
D03*
X246000Y204500D02*
D03*
X231500Y202000D02*
D03*
X230500Y222000D02*
D03*
X219000Y230500D02*
D03*
X201000Y246000D02*
D03*
X200500Y256000D02*
D03*
X241000Y319000D02*
D03*
X254540Y306941D02*
D03*
X247000Y286500D02*
D03*
X246484Y304000D02*
D03*
X349500Y387500D02*
D03*
Y374000D02*
D03*
X308000Y387000D02*
D03*
X332000Y392500D02*
D03*
X266000Y372000D02*
D03*
X265500Y407000D02*
D03*
X270000D02*
D03*
X300500Y349500D02*
D03*
X298500Y343000D02*
D03*
X330500Y332000D02*
D03*
X320500Y329500D02*
D03*
X313000D02*
D03*
X252000Y250000D02*
D03*
X246500Y270000D02*
D03*
X234000Y359000D02*
D03*
X242500Y365500D02*
D03*
X240500Y369000D02*
D03*
X218000Y364000D02*
D03*
X268000Y344000D02*
D03*
X277000Y331000D02*
D03*
X220500Y318500D02*
D03*
X219500Y284500D02*
D03*
X199500Y296500D02*
D03*
Y284000D02*
D03*
X202000Y275500D02*
D03*
X216000Y268000D02*
D03*
X240500Y261500D02*
D03*
Y269000D02*
D03*
X245500Y238500D02*
D03*
X250500Y223000D02*
D03*
X257500Y207500D02*
D03*
X286500Y201500D02*
D03*
X316500Y202500D02*
D03*
X355500Y204000D02*
D03*
X360000Y227000D02*
D03*
X342000Y207000D02*
D03*
X323500Y250000D02*
D03*
X331500Y244500D02*
D03*
X363500Y313500D02*
D03*
X331500D02*
D03*
X344500Y314500D02*
D03*
X344000Y306500D02*
D03*
X281000Y353000D02*
D03*
X270500Y358500D02*
D03*
X269500Y384000D02*
D03*
X282500Y454000D02*
D03*
X236500Y462500D02*
D03*
X329500Y434000D02*
D03*
X320500D02*
D03*
X205500Y352500D02*
D03*
X206500Y338500D02*
D03*
X323500Y369500D02*
D03*
X317118Y346218D02*
D03*
X308500Y346000D02*
D03*
X312000D02*
D03*
X313000Y337500D02*
D03*
X327150Y232925D02*
D03*
X314000Y442000D02*
D03*
Y426500D02*
D03*
X337500Y329000D02*
D03*
X341500Y339000D02*
D03*
X339500Y349000D02*
D03*
X341500Y356500D02*
D03*
X339000Y343000D02*
D03*
X345000Y350000D02*
D03*
X334000Y403500D02*
D03*
X326500Y406500D02*
D03*
X315000D02*
D03*
X271000Y375000D02*
D03*
X334000Y303000D02*
D03*
X327500Y267000D02*
D03*
X329000Y303000D02*
D03*
X342500Y269500D02*
D03*
Y266000D02*
D03*
Y262500D02*
D03*
X358000Y269000D02*
D03*
Y265500D02*
D03*
Y262000D02*
D03*
X342500Y259000D02*
D03*
X349000Y348500D02*
D03*
X207000Y305000D02*
D03*
X226000Y317500D02*
D03*
X208000Y311000D02*
D03*
X234000Y340000D02*
D03*
X251500Y279000D02*
D03*
Y273500D02*
D03*
X286000Y408500D02*
D03*
X250000Y401000D02*
D03*
X325500Y340000D02*
D03*
X324500Y332500D02*
D03*
X294000Y337500D02*
D03*
X324500Y343500D02*
D03*
X323500Y357000D02*
D03*
X358000Y348000D02*
D03*
X291500Y406000D02*
D03*
X278500Y386500D02*
D03*
X307500Y403500D02*
D03*
X333000Y383500D02*
D03*
X283500Y386500D02*
D03*
X288500D02*
D03*
X343500Y395000D02*
D03*
X344250Y399000D02*
D03*
X343500Y403500D02*
D03*
X304000Y219000D02*
D03*
X256500Y332500D02*
D03*
X254500Y329000D02*
D03*
X253500Y325500D02*
D03*
X256500Y321500D02*
D03*
X234000Y352500D02*
D03*
X274000Y304500D02*
D03*
X265000Y231500D02*
D03*
X303000Y213000D02*
D03*
X254500Y269000D02*
D03*
X260500D02*
D03*
X287500Y334500D02*
D03*
Y345500D02*
D03*
X302500Y346500D02*
D03*
X270500Y310500D02*
D03*
X245500Y338500D02*
D03*
X264000Y413500D02*
D03*
X260000Y409500D02*
D03*
X262500Y375000D02*
D03*
X257500Y366000D02*
D03*
X277500Y325000D02*
D03*
X276000Y315500D02*
D03*
X255500Y362000D02*
D03*
X254000Y357000D02*
D03*
X288500Y299000D02*
D03*
Y309000D02*
D03*
X302500Y306000D02*
D03*
X262000Y299500D02*
D03*
X263500Y303000D02*
D03*
X265000Y312000D02*
D03*
X240500Y343000D02*
D03*
Y337500D02*
D03*
X267000Y315000D02*
D03*
X258000Y272500D02*
D03*
X249500Y283000D02*
D03*
D47*
X348622Y359646D02*
D03*
Y341142D02*
D03*
D48*
X375787Y350394D02*
D03*
D49*
X308461Y420630D02*
D03*
X250980Y458425D02*
D03*
X312004D02*
D03*
D50*
X259839Y418268D02*
D03*
X255508D02*
D03*
X268500D02*
D03*
X264169D02*
D03*
X277161D02*
D03*
X272831D02*
D03*
X290154D02*
D03*
X285823D02*
D03*
X281492D02*
D03*
D51*
X250980Y420630D02*
D03*
M02*
